<?xml version="1.0" encoding="UTF-8" standalone="no"?>
<svg
   xmlns:dc="http://purl.org/dc/elements/1.1/"
   xmlns:cc="http://creativecommons.org/ns#"
   xmlns:rdf="http://www.w3.org/1999/02/22-rdf-syntax-ns#"
   xmlns:svg="http://www.w3.org/2000/svg"
   xmlns="http://www.w3.org/2000/svg"
   id="svg8"
   version="1.1"
   viewBox="0 0 181.07329 71.095078"
   height="71.095078mm"
   width="181.07329mm">
  <defs
     id="defs2" />
  <metadata
     id="metadata5">
    <rdf:RDF>
      <cc:Work
         rdf:about="">
        <dc:format>image/svg+xml</dc:format>
        <dc:type
           rdf:resource="http://purl.org/dc/dcmitype/StillImage" />
        <dc:title></dc:title>
      </cc:Work>
    </rdf:RDF>
  </metadata>
  <g
     transform="translate(-14.299824,-22.378273)"
     id="layer1">
    <g
       id="text4520"
       style="font-style:normal;font-variant:normal;font-weight:normal;font-stretch:normal;font-size:10.58333302px;line-height:6.61458302px;font-family:'Brandon Grotesque';-inkscape-font-specification:'Brandon Grotesque';letter-spacing:0px;word-spacing:0px;fill:#000000;fill-opacity:1;stroke:none;stroke-width:0.26458332px;stroke-linecap:butt;stroke-linejoin:miter;stroke-opacity:1"
       aria-label="GCCcore">
      <path
         id="path4815"
         style="stroke-width:0.26458332px"
         d="m 86.097671,30.699092 q -0.299723,-0.7028 -0.299723,-1.483114 0,-0.780314 0.299723,-1.483113 0.299724,-0.707968 0.806153,-1.214397 0.506429,-0.511596 1.209228,-0.81132 0.707967,-0.299723 1.483114,-0.299723 0.671793,0 1.35909,0.26355 0.687297,0.26355 1.224731,0.728638 0.07235,0.05684 0.07752,0.144694 0.0052,0.08268 -0.05684,0.144694 L 91.3635,27.577835 q -0.139527,0.118856 -0.284221,0.01034 -0.54777,-0.506429 -1.390096,-0.506429 -0.862996,0 -1.472778,0.630452 -0.609782,0.630452 -0.609782,1.503784 0,0.868164 0.61495,1.488281 0.614949,0.620117 1.477946,0.620117 0.527099,0 0.945678,-0.170532 v -0.614949 h -0.666626 q -0.08785,0 -0.144694,-0.05684 -0.05684,-0.05684 -0.05684,-0.134359 v -1.043864 q 0,-0.08785 0.05684,-0.144694 0.05684,-0.05684 0.144694,-0.05684 h 2.123902 q 0.07751,0 0.134358,0.06201 0.05685,0.06201 0.05685,0.139526 l 0.01033,2.847371 q 0,0.103353 -0.08268,0.165365 -0.04651,0.02584 -0.129192,0.07235 -0.08268,0.04651 -0.351399,0.165365 -0.268718,0.118855 -0.558106,0.211873 -0.289388,0.08785 -0.72347,0.160197 -0.434082,0.07751 -0.862996,0.07751 -0.775147,0 -1.483114,-0.294555 -0.702799,-0.299723 -1.209228,-0.800985 -0.506429,-0.506429 -0.806153,-1.209228 z" />
      <path
         id="path4817"
         style="stroke-width:0.26458332px"
         d="m 93.208348,29.215978 q 0,-0.780314 0.299724,-1.488281 0.304891,-0.707967 0.81132,-1.214396 0.511596,-0.511597 1.219563,-0.81132 0.707967,-0.304891 1.488281,-0.304891 0.780315,0 1.395264,0.242879 0.620117,0.237712 1.167887,0.738973 0.07235,0.06201 0.07235,0.155029 0,0.08268 -0.06201,0.144694 L 98.7739,27.536494 q -0.05684,0.05168 -0.134359,0.05168 -0.07751,0 -0.129191,-0.05168 -0.604614,-0.542602 -1.431437,-0.542602 -0.883667,0 -1.477946,0.640787 -0.594279,0.640788 -0.594279,1.539958 0,0.888835 0.599447,1.519287 0.599446,0.630452 1.483113,0.630452 0.377238,0 0.754476,-0.134358 0.382406,-0.134359 0.666626,-0.377238 0.05168,-0.04651 0.139526,-0.04134 0.08785,0.0052 0.134359,0.05684 l 0.826823,0.878499 q 0.05168,0.05168 0.05168,0.134359 0,0.09302 -0.06201,0.149861 -1.054199,1.023194 -2.573487,1.023194 -0.521931,0 -1.018025,-0.134359 -0.496094,-0.134359 -0.914673,-0.377238 -0.418579,-0.242879 -0.769979,-0.589111 -0.3514,-0.3514 -0.599446,-0.769979 -0.24288,-0.418579 -0.382406,-0.909505 -0.134359,-0.496094 -0.134359,-1.018026 z" />
      <path
         id="path4819"
         style="stroke-width:0.26458332px"
         d="m 100.31903,29.215978 q 0,-0.780314 0.29972,-1.488281 0.30489,-0.707967 0.81132,-1.214396 0.51159,-0.511597 1.21956,-0.81132 0.70797,-0.304891 1.48828,-0.304891 0.78032,0 1.39527,0.242879 0.62011,0.237712 1.16788,0.738973 0.0724,0.06201 0.0724,0.155029 0,0.08268 -0.062,0.144694 l -0.82682,0.857829 q -0.0568,0.05168 -0.13436,0.05168 -0.0775,0 -0.12919,-0.05168 -0.60462,-0.542602 -1.43144,-0.542602 -0.88367,0 -1.47795,0.640787 -0.59428,0.640788 -0.59428,1.539958 0,0.888835 0.59945,1.519287 0.59945,0.630452 1.48311,0.630452 0.37724,0 0.75448,-0.134358 0.38241,-0.134359 0.66663,-0.377238 0.0517,-0.04651 0.13952,-0.04134 0.0879,0.0052 0.13436,0.05684 l 0.82682,0.878499 q 0.0517,0.05168 0.0517,0.134359 0,0.09302 -0.062,0.149861 -1.0542,1.023194 -2.57349,1.023194 -0.52193,0 -1.01802,-0.134359 -0.4961,-0.134359 -0.91468,-0.377238 -0.41857,-0.242879 -0.76997,-0.589111 -0.3514,-0.3514 -0.59945,-0.769979 -0.24288,-0.418579 -0.38241,-0.909505 -0.13435,-0.496094 -0.13435,-1.018026 z" />
      <path
         id="path4821"
         style="stroke-width:0.26458332px"
         d="m 107.13515,30.792109 q 0,-0.609782 0.31522,-1.121378 0.3204,-0.516765 0.84233,-0.806153 0.5271,-0.294555 1.12654,-0.294555 0.95602,0 1.59164,0.764811 0.0517,0.07235 0.031,0.149862 -0.0155,0.07751 -0.0879,0.144694 l -0.63045,0.604614 q -0.0413,0.03617 -0.11885,0.03101 -0.0775,-0.01034 -0.11886,-0.05168 -0.25838,-0.273885 -0.60978,-0.273885 -0.34623,0 -0.59945,0.253215 -0.24804,0.248047 -0.24804,0.599446 0,0.356568 0.23771,0.609782 0.24288,0.248047 0.58911,0.248047 0.25321,0 0.40307,-0.08268 0.15503,-0.08268 0.31523,-0.24288 0.12919,-0.129191 0.23254,-0.04134 l 0.63562,0.54777 q 0.10853,0.09819 0.10853,0.191203 0,0.05168 -0.0362,0.103353 -0.58911,0.888835 -1.70532,0.888835 -0.91984,0 -1.5968,-0.640788 -0.67696,-0.645955 -0.67696,-1.581299 z" />
      <path
         id="path4823"
         style="stroke-width:0.26458332px"
         d="m 111.57932,30.781774 q 0,-0.89917 0.65112,-1.555461 0.65113,-0.65629 1.5503,-0.65629 0.89917,0 1.55029,0.65629 0.65112,0.656291 0.65112,1.555461 0,0.914673 -0.65112,1.576131 -0.64596,0.656291 -1.55029,0.656291 -0.90434,0 -1.55546,-0.656291 -0.64596,-0.661458 -0.64596,-1.576131 z m 1.36426,0 q 0,0.356567 0.24288,0.614949 0.24804,0.253215 0.59428,0.253215 0.34623,0 0.58911,-0.253215 0.24804,-0.258382 0.24804,-0.614949 0,-0.3514 -0.24804,-0.594279 -0.24288,-0.248047 -0.58911,-0.248047 -0.34624,0 -0.59428,0.248047 -0.24288,0.242879 -0.24288,0.594279 z" />
      <path
         id="path4825"
         style="stroke-width:0.26458332px"
         d="m 116.80898,32.709305 v -3.829224 q 0,-0.08785 0.0568,-0.144694 0.062,-0.05684 0.14469,-0.05684 h 0.4961 q 0.12919,0 0.1912,0.124024 l 0.18603,0.465088 q 0.19638,-0.284221 0.49093,-0.490927 0.29456,-0.206705 0.66663,-0.206705 0.28939,0 0.51159,0.06201 0.22221,0.06201 0.31523,0.165365 0.0517,0.06201 0.0517,0.124023 0,0.05168 -0.031,0.103353 l -0.52193,0.847494 q -0.0879,0.149861 -0.23255,0.09819 -0.14469,-0.05684 -0.25321,-0.05684 -0.24288,0 -0.40308,0.170532 -0.16019,0.165365 -0.16019,0.434082 v 2.191081 q 0,0.201538 -0.23255,0.201538 h -1.07487 q -0.0775,0 -0.13952,-0.06201 -0.062,-0.06201 -0.062,-0.139526 z" />
      <path
         id="path4827"
         style="stroke-width:0.26458332px"
         d="m 120.10593,30.792109 q 0,-0.909505 0.63045,-1.565796 0.63562,-0.65629 1.56063,-0.65629 0.82682,0 1.41593,0.56844 0.59428,0.563274 0.59428,1.421102 0,0.144694 -0.0207,0.289388 -0.005,0.07751 -0.0672,0.129191 -0.062,0.04651 -0.13436,0.04651 h -2.53731 q 0.031,0.258382 0.23255,0.480591 0.2067,0.222209 0.57877,0.222209 0.18604,0 0.39274,-0.07752 0.21188,-0.07751 0.3514,-0.180868 0.0672,-0.05684 0.13953,-0.05684 0.0775,0 0.12402,0.05684 l 0.5271,0.635621 q 0.0517,0.06718 0.0517,0.149861 0.005,0.08268 -0.062,0.160197 -0.59945,0.599447 -1.5658,0.599447 -0.93534,0 -1.57613,-0.645956 -0.63562,-0.651123 -0.63562,-1.576131 z m 1.57613,-0.589111 h 1.13171 q -0.0155,-0.201538 -0.18603,-0.3514 -0.16537,-0.149861 -0.37207,-0.149861 -0.21187,0 -0.37724,0.149861 -0.16536,0.144694 -0.19637,0.3514 z" />
    </g>
    <g
       id="text4524"
       style="font-style:normal;font-variant:normal;font-weight:normal;font-stretch:normal;font-size:10.58333302px;line-height:6.61458302px;font-family:'Brandon Grotesque';-inkscape-font-specification:'Brandon Grotesque';letter-spacing:0px;word-spacing:0px;fill:#000000;fill-opacity:1;stroke:none;stroke-width:0.26458332px;stroke-linecap:butt;stroke-linejoin:miter;stroke-opacity:1"
       aria-label="GCC">
      <path
         id="path4830"
         style="stroke-width:0.26458332px"
         d="m 56.719509,49.407958 q -0.299723,-0.7028 -0.299723,-1.483114 0,-0.780314 0.299723,-1.483113 0.299723,-0.707967 0.806152,-1.214396 0.506429,-0.511597 1.209229,-0.81132 0.707967,-0.299724 1.483113,-0.299724 0.671794,0 1.359091,0.26355 0.687296,0.26355 1.224731,0.728638 0.07235,0.05684 0.07751,0.144694 0.0052,0.08268 -0.05684,0.144694 l -0.837159,0.888834 q -0.139526,0.118856 -0.28422,0.01034 -0.54777,-0.506429 -1.390096,-0.506429 -0.862996,0 -1.472778,0.630452 -0.609782,0.630453 -0.609782,1.503784 0,0.868164 0.614949,1.488281 0.61495,0.620118 1.477946,0.620118 0.5271,0 0.945679,-0.170533 v -0.614949 h -0.666626 q -0.08785,0 -0.144694,-0.05684 -0.05684,-0.05684 -0.05684,-0.134359 v -1.043864 q 0,-0.08785 0.05684,-0.144694 0.05684,-0.05684 0.144694,-0.05684 h 2.123901 q 0.07751,0 0.134359,0.06201 0.05684,0.06201 0.05684,0.139526 l 0.01034,2.847371 q 0,0.103353 -0.08268,0.165365 -0.04651,0.02584 -0.129191,0.07235 -0.08268,0.04651 -0.3514,0.165365 -0.268717,0.118855 -0.558105,0.211873 -0.289388,0.08785 -0.72347,0.160197 -0.434082,0.07751 -0.862997,0.07751 -0.775146,0 -1.483113,-0.294556 -0.7028,-0.299723 -1.209229,-0.800985 -0.506429,-0.506429 -0.806152,-1.209228 z" />
      <path
         id="path4832"
         style="stroke-width:0.26458332px"
         d="m 63.830186,47.924844 q 0,-0.780314 0.299723,-1.488281 0.304891,-0.707967 0.81132,-1.214396 0.511597,-0.511597 1.219564,-0.81132 0.707967,-0.304891 1.488281,-0.304891 0.780314,0 1.395264,0.242879 0.620117,0.237712 1.167887,0.738973 0.07235,0.06201 0.07235,0.155029 0,0.08268 -0.06201,0.144694 l -0.826823,0.857829 q -0.05684,0.05168 -0.134358,0.05168 -0.07752,0 -0.129191,-0.05168 -0.604615,-0.542602 -1.431437,-0.542602 -0.883667,0 -1.477946,0.640787 -0.594279,0.640788 -0.594279,1.539958 0,0.888835 0.599446,1.519287 0.599447,0.630453 1.483114,0.630453 0.377238,0 0.754476,-0.134359 0.382405,-0.134359 0.666626,-0.377238 0.05168,-0.04651 0.139526,-0.04134 0.08785,0.0052 0.134359,0.05684 l 0.826823,0.878499 q 0.05168,0.05168 0.05168,0.134359 0,0.09302 -0.06201,0.149862 -1.054199,1.023193 -2.573486,1.023193 -0.521932,0 -1.018026,-0.134359 -0.496093,-0.134359 -0.914672,-0.377238 -0.418579,-0.242879 -0.769979,-0.589111 -0.3514,-0.3514 -0.599447,-0.769979 -0.242879,-0.418579 -0.382405,-0.909505 -0.134359,-0.496094 -0.134359,-1.018026 z" />
      <path
         id="path4834"
         style="stroke-width:0.26458332px"
         d="m 70.940863,47.924844 q 0,-0.780314 0.299723,-1.488281 0.304891,-0.707967 0.81132,-1.214396 0.511597,-0.511597 1.219564,-0.81132 0.707967,-0.304891 1.488281,-0.304891 0.780314,0 1.395264,0.242879 0.620117,0.237712 1.167887,0.738973 0.07235,0.06201 0.07235,0.155029 0,0.08268 -0.06201,0.144694 l -0.826823,0.857829 q -0.05684,0.05168 -0.134358,0.05168 -0.07752,0 -0.129192,-0.05168 -0.604614,-0.542602 -1.431437,-0.542602 -0.883667,0 -1.477946,0.640787 -0.594279,0.640788 -0.594279,1.539958 0,0.888835 0.599447,1.519287 0.599447,0.630453 1.483114,0.630453 0.377238,0 0.754475,-0.134359 0.382406,-0.134359 0.666626,-0.377238 0.05168,-0.04651 0.139527,-0.04134 0.08785,0.0052 0.134359,0.05684 l 0.826822,0.878499 q 0.05168,0.05168 0.05168,0.134359 0,0.09302 -0.06201,0.149862 -1.054199,1.023193 -2.573486,1.023193 -0.521932,0 -1.018026,-0.134359 -0.496094,-0.134359 -0.914673,-0.377238 -0.418579,-0.242879 -0.769978,-0.589111 -0.3514,-0.3514 -0.599447,-0.769979 -0.242879,-0.418579 -0.382406,-0.909505 -0.134358,-0.496094 -0.134358,-1.018026 z" />
    </g>
    <g
       id="text4528"
       style="font-style:normal;font-variant:normal;font-weight:normal;font-stretch:normal;font-size:10.58333302px;line-height:6.61458302px;font-family:'Brandon Grotesque';-inkscape-font-specification:'Brandon Grotesque';letter-spacing:0px;word-spacing:0px;fill:#000000;fill-opacity:1;stroke:none;stroke-width:0.26458332px;stroke-linecap:butt;stroke-linejoin:miter;stroke-opacity:1"
       aria-label="iccifort">
      <path
         id="path4798"
         style="stroke-width:0.26458332px"
         d="m 129.16051,45.268676 q 0,-0.3514 0.24288,-0.599447 0.24805,-0.248047 0.59428,-0.248047 0.3514,0 0.59945,0.253215 0.24804,0.248047 0.24804,0.594279 0,0.346232 -0.24804,0.594279 -0.24805,0.242879 -0.59945,0.242879 -0.3514,0 -0.59428,-0.242879 -0.24288,-0.248047 -0.24288,-0.594279 z m 0.0672,6.149495 v -3.829224 q 0,-0.08785 0.0568,-0.144694 0.062,-0.05684 0.14469,-0.05684 h 1.16272 q 0.0827,0 0.13953,0.05684 0.062,0.05684 0.062,0.144694 v 3.829224 q 0,0.07751 -0.062,0.139526 -0.062,0.06201 -0.13953,0.06201 h -1.16272 q -0.0775,0 -0.13953,-0.06201 -0.062,-0.06201 -0.062,-0.139526 z" />
      <path
         id="path4800"
         style="stroke-width:0.26458332px"
         d="m 131.60481,49.500975 q 0,-0.609782 0.31522,-1.121378 0.3204,-0.516764 0.84233,-0.806153 0.5271,-0.294555 1.12655,-0.294555 0.95601,0 1.59163,0.764811 0.0517,0.07235 0.031,0.149862 -0.0155,0.07751 -0.0879,0.144694 l -0.63046,0.604614 q -0.0413,0.03617 -0.11885,0.03101 -0.0775,-0.01034 -0.11886,-0.05168 -0.25838,-0.273885 -0.60978,-0.273885 -0.34623,0 -0.59945,0.253215 -0.24804,0.248047 -0.24804,0.599446 0,0.356568 0.23771,0.609782 0.24288,0.248047 0.58911,0.248047 0.25321,0 0.40308,-0.08268 0.15502,-0.08268 0.31522,-0.242879 0.12919,-0.129191 0.23255,-0.04134 l 0.63562,0.547771 q 0.10852,0.09818 0.10852,0.191202 0,0.05168 -0.0362,0.103353 -0.58911,0.888835 -1.70532,0.888835 -0.91984,0 -1.5968,-0.640788 -0.67696,-0.645955 -0.67696,-1.581299 z" />
      <path
         id="path4802"
         style="stroke-width:0.26458332px"
         d="m 136.04898,49.500975 q 0,-0.609782 0.31523,-1.121378 0.32039,-0.516764 0.84232,-0.806153 0.5271,-0.294555 1.12655,-0.294555 0.95601,0 1.59163,0.764811 0.0517,0.07235 0.031,0.149862 -0.0155,0.07751 -0.0879,0.144694 l -0.63045,0.604614 q -0.0413,0.03617 -0.11886,0.03101 -0.0775,-0.01034 -0.11886,-0.05168 -0.25838,-0.273885 -0.60978,-0.273885 -0.34623,0 -0.59944,0.253215 -0.24805,0.248047 -0.24805,0.599446 0,0.356568 0.23771,0.609782 0.24288,0.248047 0.58911,0.248047 0.25322,0 0.40308,-0.08268 0.15503,-0.08268 0.31522,-0.242879 0.1292,-0.129191 0.23255,-0.04134 l 0.63562,0.547771 q 0.10852,0.09818 0.10852,0.191202 0,0.05168 -0.0362,0.103353 -0.58912,0.888835 -1.70533,0.888835 -0.91984,0 -1.5968,-0.640788 -0.67696,-0.645955 -0.67696,-1.581299 z" />
      <path
         id="path4804"
         style="stroke-width:0.26458332px"
         d="m 140.7567,45.268676 q 0,-0.3514 0.24288,-0.599447 0.24805,-0.248047 0.59428,-0.248047 0.3514,0 0.59945,0.253215 0.24804,0.248047 0.24804,0.594279 0,0.346232 -0.24804,0.594279 -0.24805,0.242879 -0.59945,0.242879 -0.3514,0 -0.59428,-0.242879 -0.24288,-0.248047 -0.24288,-0.594279 z m 0.0672,6.149495 v -3.829224 q 0,-0.08785 0.0568,-0.144694 0.062,-0.05684 0.14469,-0.05684 h 1.16272 q 0.0827,0 0.13953,0.05684 0.062,0.05684 0.062,0.144694 v 3.829224 q 0,0.07751 -0.062,0.139526 -0.062,0.06201 -0.13953,0.06201 h -1.16272 q -0.0775,0 -0.13953,-0.06201 -0.062,-0.06201 -0.062,-0.139526 z" />
      <path
         id="path4806"
         style="stroke-width:0.26458332px"
         d="m 143.33019,48.529458 v -0.940511 q 0,-0.08785 0.0568,-0.144694 0.0568,-0.05684 0.1447,-0.05684 h 0.22221 v -0.976684 q 0,-1.085205 0.59427,-1.694987 0.59945,-0.609782 1.5503,-0.609782 0.3824,0 0.75964,0.129191 0.38241,0.129191 0.53227,0.273885 0.0465,0.04134 0.0568,0.113688 0.005,0.02067 0.005,0.04134 0,0.04651 -0.0207,0.08785 l -0.44442,0.8785 q -0.0258,0.05684 -0.10335,0.08268 -0.0775,0.02067 -0.13953,-0.01033 -0.33073,-0.170533 -0.54777,-0.170533 -0.32039,0 -0.47542,0.237712 -0.14986,0.232544 -0.14986,0.640788 v 0.976684 h 0.97151 q 0.0879,0 0.1447,0.05684 0.0568,0.05684 0.0568,0.144694 v 0.940511 q 0,0.08268 -0.0568,0.144694 -0.0568,0.05685 -0.1447,0.05685 h -0.97151 v 2.687174 q 0,0.07751 -0.062,0.139526 -0.062,0.06201 -0.13953,0.06201 h -1.2144 q -0.0775,0 -0.13952,-0.06201 -0.062,-0.06201 -0.062,-0.139526 v -2.687174 h -0.22221 q -0.0879,0 -0.1447,-0.05685 -0.0568,-0.06201 -0.0568,-0.144694 z" />
      <path
         id="path4808"
         style="stroke-width:0.26458332px"
         d="m 146.96304,49.49064 q 0,-0.89917 0.65113,-1.55546 0.65112,-0.656291 1.55029,-0.656291 0.89917,0 1.55029,0.656291 0.65112,0.65629 0.65112,1.55546 0,0.914673 -0.65112,1.576131 -0.64595,0.656291 -1.55029,0.656291 -0.90434,0 -1.55546,-0.656291 -0.64596,-0.661458 -0.64596,-1.576131 z m 1.36426,0 q 0,0.356567 0.24288,0.61495 0.24805,0.253214 0.59428,0.253214 0.34623,0 0.58911,-0.253214 0.24805,-0.258383 0.24805,-0.61495 0,-0.3514 -0.24805,-0.594279 -0.24288,-0.248047 -0.58911,-0.248047 -0.34623,0 -0.59428,0.248047 -0.24288,0.242879 -0.24288,0.594279 z" />
      <path
         id="path4810"
         style="stroke-width:0.26458332px"
         d="m 152.1927,51.418171 v -3.829224 q 0,-0.08785 0.0568,-0.144694 0.062,-0.05684 0.1447,-0.05684 h 0.49609 q 0.12919,0 0.1912,0.124024 l 0.18604,0.465088 q 0.19637,-0.284221 0.49092,-0.490926 0.29456,-0.206706 0.66663,-0.206706 0.28939,0 0.5116,0.06201 0.2222,0.06201 0.31522,0.165364 0.0517,0.06201 0.0517,0.124024 0,0.05168 -0.031,0.103352 l -0.52193,0.847494 q -0.0878,0.149862 -0.23254,0.09818 -0.1447,-0.05684 -0.25322,-0.05684 -0.24288,0 -0.40307,0.170532 -0.1602,0.165365 -0.1602,0.434082 v 2.191081 q 0,0.201538 -0.23254,0.201538 h -1.07487 q -0.0775,0 -0.13953,-0.06201 -0.062,-0.06201 -0.062,-0.139526 z" />
      <path
         id="path4812"
         style="stroke-width:0.26458332px"
         d="m 155.55167,48.529458 v -0.940511 q 0,-0.08785 0.0568,-0.144694 0.0568,-0.05684 0.13436,-0.05684 h 0.27388 v -1.178222 q 0,-0.07751 0.062,-0.134359 0.062,-0.06201 0.13952,-0.06201 h 1.13172 q 0.0775,0 0.13435,0.06201 0.0568,0.05684 0.0568,0.134359 v 1.178222 h 0.78548 q 0.0878,0 0.14469,0.05684 0.0568,0.05684 0.0568,0.144694 v 0.940511 q 0,0.08268 -0.0568,0.144694 -0.0568,0.05685 -0.14469,0.05685 h -0.78548 v 1.322916 q 0,0.253215 0.28939,0.253215 0.0672,0 0.13952,-0.01034 0.0724,-0.0155 0.1602,-0.03617 0.0878,-0.02067 0.10852,-0.02584 0.18604,-0.03617 0.23254,0.134358 l 0.23772,0.8785 q 0.005,0.02067 0.005,0.04134 0.005,0.05168 -0.0258,0.103353 -0.0413,0.07235 -0.11885,0.09819 -0.75448,0.232544 -1.28158,0.232544 -0.60978,0 -0.94051,-0.377238 -0.33073,-0.377238 -0.33073,-1.090373 v -1.524454 h -0.27388 q -0.0775,0 -0.13436,-0.06201 -0.0568,-0.06201 -0.0568,-0.139527 z" />
    </g>
    <g
       id="text4532"
       style="font-style:normal;font-variant:normal;font-weight:normal;font-stretch:normal;font-size:10.58333302px;line-height:6.61458302px;font-family:'Brandon Grotesque';-inkscape-font-specification:'Brandon Grotesque';letter-spacing:0px;word-spacing:0px;fill:#000000;fill-opacity:1;stroke:none;stroke-width:0.26458332px;stroke-linecap:butt;stroke-linejoin:miter;stroke-opacity:1"
       aria-label="intel">
      <path
         id="path4715"
         style="stroke-width:0.26458332px"
         d="m 123.18313,82.69871 q 0,-0.351399 0.24288,-0.599446 0.24804,-0.248047 0.59427,-0.248047 0.3514,0 0.59945,0.253214 0.24805,0.248047 0.24805,0.594279 0,0.346232 -0.24805,0.594279 -0.24805,0.242879 -0.59945,0.242879 -0.3514,0 -0.59427,-0.242879 -0.24288,-0.248047 -0.24288,-0.594279 z m 0.0672,6.149496 v -3.829224 q 0,-0.08785 0.0568,-0.144694 0.062,-0.05684 0.14469,-0.05684 h 1.16272 q 0.0827,0 0.13953,0.05684 0.062,0.05684 0.062,0.144694 v 3.829224 q 0,0.07751 -0.062,0.139526 -0.062,0.06201 -0.13953,0.06201 h -1.16272 q -0.0775,0 -0.13952,-0.06201 -0.062,-0.06201 -0.062,-0.139526 z" />
      <path
         id="path4717"
         style="stroke-width:0.26458332px"
         d="m 125.95815,88.848206 v -3.829224 q 0,-0.08785 0.0568,-0.144694 0.062,-0.05684 0.1447,-0.05684 h 0.49609 q 0.0517,0 0.10852,0.03617 0.062,0.03617 0.0827,0.08785 l 0.16537,0.423747 q 0.60461,-0.656291 1.49345,-0.656291 0.94568,0 1.47794,0.635621 0.53227,0.630452 0.53227,1.576131 v 1.927531 q 0,0.07751 -0.062,0.139526 -0.062,0.06201 -0.13953,0.06201 h -1.13171 q -0.0879,0 -0.14469,-0.05684 -0.0568,-0.06201 -0.0568,-0.144694 v -1.979208 q 0,-0.335897 -0.1912,-0.563273 -0.18604,-0.227376 -0.5271,-0.227376 -0.32556,0 -0.56844,0.211873 -0.23771,0.206706 -0.23771,0.5271 v 2.030884 q 0,0.201538 -0.18604,0.201538 h -1.11104 q -0.0775,0 -0.13953,-0.06201 -0.062,-0.06201 -0.062,-0.139526 z" />
      <path
         id="path4719"
         style="stroke-width:0.26458332px"
         d="m 131.21881,85.959493 v -0.940511 q 0,-0.08785 0.0568,-0.144694 0.0568,-0.05684 0.13436,-0.05684 h 0.27389 v -1.178223 q 0,-0.07751 0.062,-0.134358 0.062,-0.06201 0.13953,-0.06201 h 1.13171 q 0.0775,0 0.13436,0.06201 0.0568,0.05684 0.0568,0.134358 v 1.178223 h 0.78548 q 0.0879,0 0.1447,0.05684 0.0568,0.05684 0.0568,0.144694 v 0.940511 q 0,0.08268 -0.0568,0.144694 -0.0568,0.05684 -0.1447,0.05684 h -0.78548 v 1.322917 q 0,0.253214 0.28939,0.253214 0.0672,0 0.13953,-0.01033 0.0723,-0.0155 0.16019,-0.03617 0.0879,-0.02067 0.10852,-0.02584 0.18604,-0.03617 0.23255,0.134359 l 0.23771,0.878499 q 0.005,0.02067 0.005,0.04134 0.005,0.05168 -0.0258,0.103353 -0.0413,0.07235 -0.11886,0.09819 -0.75447,0.232544 -1.28157,0.232544 -0.60978,0 -0.94051,-0.377238 -0.33073,-0.377238 -0.33073,-1.090373 v -1.524455 h -0.27389 q -0.0775,0 -0.13436,-0.06201 -0.0568,-0.06201 -0.0568,-0.139526 z" />
      <path
         id="path4721"
         style="stroke-width:0.26458332px"
         d="m 134.83616,86.93101 q 0,-0.909505 0.63045,-1.565796 0.63562,-0.656291 1.56063,-0.656291 0.82682,0 1.41594,0.568441 0.59428,0.563273 0.59428,1.421102 0,0.144694 -0.0207,0.289388 -0.005,0.07752 -0.0672,0.129191 -0.062,0.04651 -0.13436,0.04651 h -2.53732 q 0.031,0.258382 0.23255,0.480591 0.2067,0.222208 0.57877,0.222208 0.18604,0 0.39274,-0.07751 0.21188,-0.07751 0.3514,-0.180868 0.0672,-0.05684 0.13953,-0.05684 0.0775,0 0.12402,0.05684 l 0.5271,0.63562 q 0.0517,0.06718 0.0517,0.149862 0.005,0.08268 -0.062,0.160197 -0.59945,0.599447 -1.5658,0.599447 -0.93534,0 -1.57613,-0.645956 -0.63562,-0.651123 -0.63562,-1.576131 z m 1.57613,-0.589111 h 1.13172 q -0.0155,-0.201538 -0.18604,-0.3514 -0.16536,-0.149862 -0.37207,-0.149862 -0.21187,0 -0.37724,0.149862 -0.16536,0.144694 -0.19637,0.3514 z" />
      <path
         id="path4723"
         style="stroke-width:0.26458332px"
         d="m 139.80743,88.848206 v -7.007324 q 0,-0.07751 0.062,-0.139527 0.062,-0.06201 0.13952,-0.06201 h 1.16272 q 0.0775,0 0.13953,0.06201 0.062,0.06201 0.062,0.139527 v 7.007324 q 0,0.07751 -0.062,0.139526 -0.062,0.06201 -0.13953,0.06201 h -1.16272 q -0.0775,0 -0.13952,-0.06201 -0.062,-0.06201 -0.062,-0.139526 z" />
    </g>
    <g
       id="text4536"
       style="font-style:normal;font-variant:normal;font-weight:normal;font-stretch:normal;font-size:10.58333302px;line-height:6.61458302px;font-family:'Brandon Grotesque';-inkscape-font-specification:'Brandon Grotesque';letter-spacing:0px;word-spacing:0px;fill:#000000;fill-opacity:1;stroke:none;stroke-width:0.26458332px;stroke-linecap:butt;stroke-linejoin:miter;stroke-opacity:1"
       aria-label="gompi">
      <path
         id="path4776"
         style="stroke-width:0.26458332px"
         d="m 70.945279,68.881037 q 0,-0.232544 0.08785,-0.439249 0.08785,-0.206706 0.206706,-0.330729 0.124024,-0.129191 0.248047,-0.222209 0.124023,-0.09302 0.211873,-0.134359 l 0.08785,-0.03617 q -0.03617,-0.03617 -0.08785,-0.103353 -0.04651,-0.07235 -0.134358,-0.320394 -0.08268,-0.248047 -0.08268,-0.537435 0,-0.744141 0.54777,-1.286743 0.547771,-0.54777 1.312582,-0.54777 h 1.999878 q 0.08785,0 0.144694,0.05684 0.05684,0.05684 0.05684,0.144694 v 0.434082 q 0,0.124023 -0.113688,0.180867 l -0.61495,0.222209 q 0.0155,0.0155 0.04134,0.04134 0.03101,0.02584 0.09819,0.124024 0.07235,0.09302 0.124024,0.201538 0.05168,0.10852 0.09302,0.289388 0.04651,0.1757 0.04651,0.37207 0,0.620117 -0.516764,1.111043 -0.511597,0.485759 -1.312581,0.485759 h -0.764812 q -0.165364,0 -0.258382,0.07751 -0.08785,0.07752 -0.08785,0.206706 0,0.139526 0.09819,0.217041 0.103352,0.07235 0.237711,0.07235 h 1.27124 q 0.769979,0 1.291911,0.428915 0.5271,0.428914 0.5271,1.11621 0,0.816488 -0.594279,1.328085 -0.594279,0.511596 -1.788005,0.511596 -0.589111,0 -1.033528,-0.129191 -0.444418,-0.129191 -0.692465,-0.346232 -0.248046,-0.211873 -0.366902,-0.45992 -0.118856,-0.242879 -0.118856,-0.506429 0,-0.222209 0.07752,-0.413412 0.08268,-0.191202 0.206705,-0.315226 0.124024,-0.118856 0.206706,-0.186035 0.08268,-0.06201 0.155029,-0.09819 v -0.03101 q -0.07751,-0.02584 -0.191202,-0.09302 -0.108521,-0.06201 -0.26355,-0.19637 -0.149862,-0.129191 -0.253215,-0.366903 -0.103353,-0.232544 -0.103353,-0.521932 z m 1.617473,1.927531 q 0,0.227377 0.191203,0.361735 0.19637,0.134359 0.56844,0.134359 0.377238,0 0.568441,-0.139526 0.19637,-0.134359 0.19637,-0.356568 0,-0.191203 -0.186035,-0.320394 -0.180867,-0.124023 -0.578776,-0.124023 -0.315226,0 -0.537435,0.113688 -0.222208,0.113688 -0.222208,0.330729 z m 0.26355,-3.958414 q 0,0.237711 0.160196,0.397908 0.165365,0.155029 0.403077,0.155029 0.242879,0 0.397908,-0.155029 0.160197,-0.160197 0.160197,-0.397908 0,-0.237712 -0.160197,-0.392741 -0.155029,-0.155029 -0.397908,-0.155029 -0.237712,0 -0.403077,0.160196 -0.160196,0.15503 -0.160196,0.387574 z" />
      <path
         id="path4778"
         style="stroke-width:0.26458332px"
         d="m 75.988899,67.134374 q 0,-0.89917 0.651123,-1.555461 0.651123,-0.65629 1.550293,-0.65629 0.89917,0 1.550293,0.65629 0.651123,0.656291 0.651123,1.555461 0,0.914673 -0.651123,1.576131 -0.645955,0.656291 -1.550293,0.656291 -0.904338,0 -1.555461,-0.656291 -0.645955,-0.661458 -0.645955,-1.576131 z m 1.364258,0 q 0,0.356567 0.242879,0.61495 0.248047,0.253214 0.594279,0.253214 0.346232,0 0.589111,-0.253214 0.248047,-0.258383 0.248047,-0.61495 0,-0.3514 -0.248047,-0.594279 -0.242879,-0.248047 -0.589111,-0.248047 -0.346232,0 -0.594279,0.248047 -0.242879,0.242879 -0.242879,0.594279 z" />
      <path
         id="path4780"
         style="stroke-width:0.26458332px"
         d="m 81.218554,69.061905 v -3.829224 q 0,-0.08785 0.05684,-0.144694 0.05684,-0.05684 0.144694,-0.05684 h 0.485758 q 0.124023,0 0.180868,0.113688 l 0.175699,0.434082 q 0.630453,-0.65629 1.431438,-0.65629 0.434082,0 0.759643,0.160197 0.330729,0.155029 0.625285,0.485758 0.645955,-0.645955 1.462443,-0.645955 0.480591,0 0.857829,0.1757 0.377238,0.1757 0.614949,0.485758 0.237712,0.304891 0.361735,0.7028 0.124024,0.397908 0.124024,0.857828 v 1.917196 q 0,0.08268 -0.05684,0.144694 -0.05685,0.05684 -0.144694,0.05684 h -1.121379 q -0.08785,0 -0.144694,-0.05684 -0.05684,-0.06201 -0.05684,-0.144694 v -1.979207 q 0,-0.341065 -0.186035,-0.563273 -0.180868,-0.227377 -0.5271,-0.227377 -0.28422,0 -0.496094,0.206706 -0.211873,0.206706 -0.211873,0.511597 v 2.051554 q 0,0.08268 -0.05684,0.144694 -0.05684,0.05684 -0.144694,0.05684 H 84.33981 q -0.08785,0 -0.144694,-0.05684 -0.05684,-0.06201 -0.05684,-0.144694 v -1.979207 q 0,-0.346232 -0.165365,-0.568441 -0.165364,-0.222209 -0.501261,-0.222209 -0.320394,0 -0.532267,0.206706 -0.211874,0.206706 -0.211874,0.532267 v 2.030884 q 0,0.07752 -0.06201,0.139526 -0.05684,0.06201 -0.134359,0.06201 h -1.111043 q -0.08785,0 -0.144694,-0.05684 -0.05684,-0.06201 -0.05684,-0.144694 z" />
      <path
         id="path4782"
         style="stroke-width:0.26458332px"
         d="m 89.528124,72.234838 v -7.002157 q 0,-0.07751 0.06201,-0.139526 0.06201,-0.06201 0.139526,-0.06201 h 0.496094 q 0.149861,0 0.222208,0.211874 l 0.124024,0.346232 q 0.02067,-0.02584 0.05684,-0.07235 0.04134,-0.04651 0.1757,-0.160197 0.134358,-0.113688 0.28422,-0.201538 0.155029,-0.08785 0.397909,-0.160197 0.248046,-0.07235 0.506429,-0.07235 0.583943,0 1.064534,0.299723 0.485759,0.299723 0.754476,0.81132 0.273885,0.506429 0.273885,1.111043 0,0.542603 -0.170532,0.976685 -0.165365,0.428914 -0.45992,0.697632 -0.289388,0.268717 -0.666626,0.408243 -0.372071,0.139527 -0.806153,0.139527 -0.248047,0 -0.506429,-0.06718 -0.253214,-0.06201 -0.37207,-0.129191 v 3.064413 q 0,0.07751 -0.06201,0.139526 -0.06201,0.06201 -0.139526,0.06201 h -1.173055 q -0.07752,0 -0.139526,-0.06201 -0.06201,-0.06201 -0.06201,-0.139526 z m 1.405599,-5.079793 q 0,0.356567 0.242879,0.604614 0.242879,0.242879 0.604614,0.242879 0.361735,0 0.609782,-0.242879 0.248047,-0.248047 0.248047,-0.604614 0,-0.366903 -0.248047,-0.61495 -0.248047,-0.248047 -0.609782,-0.248047 -0.361735,0 -0.604614,0.248047 -0.242879,0.248047 -0.242879,0.61495 z" />
      <path
         id="path4784"
         style="stroke-width:0.26458332px"
         d="m 94.855964,62.91241 q 0,-0.3514 0.242879,-0.599447 0.248047,-0.248047 0.594279,-0.248047 0.3514,0 0.599447,0.253215 0.248047,0.248047 0.248047,0.594279 0,0.346232 -0.248047,0.594279 -0.248047,0.242879 -0.599447,0.242879 -0.3514,0 -0.594279,-0.242879 -0.242879,-0.248047 -0.242879,-0.594279 z m 0.06718,6.149495 v -3.829224 q 0,-0.08785 0.05684,-0.144694 0.06201,-0.05684 0.144694,-0.05684 h 1.16272 q 0.08268,0 0.139527,0.05684 0.06201,0.05684 0.06201,0.144694 v 3.829224 q 0,0.07752 -0.06201,0.139526 -0.06201,0.06201 -0.139527,0.06201 h -1.16272 q -0.07751,0 -0.139526,-0.06201 -0.06201,-0.06201 -0.06201,-0.139526 z" />
    </g>
    <text
       id="text4540"
       y="68.751816"
       x="79.111778"
       style="font-style:normal;font-variant:normal;font-weight:normal;font-stretch:normal;font-size:10.58333302px;line-height:6.61458302px;font-family:'Brandon Grotesque';-inkscape-font-specification:'Brandon Grotesque';letter-spacing:0px;word-spacing:0px;fill:#000000;fill-opacity:1;stroke:none;stroke-width:0.26458332px;stroke-linecap:butt;stroke-linejoin:miter;stroke-opacity:1"
       xml:space="preserve"><tspan
         style="stroke-width:0.26458332px"
         y="74.177841"
         x="79.111778"
         id="tspan4538" /></text>
    <text
       id="text4544"
       y="67.950012"
       x="20.847023"
       style="font-style:normal;font-variant:normal;font-weight:normal;font-stretch:normal;font-size:10.58333302px;line-height:6.61458302px;font-family:'Brandon Grotesque';-inkscape-font-specification:'Brandon Grotesque';letter-spacing:0px;word-spacing:0px;fill:#000000;fill-opacity:1;stroke:none;stroke-width:0.26458332px;stroke-linecap:butt;stroke-linejoin:miter;stroke-opacity:1"
       xml:space="preserve"><tspan
         style="stroke-width:0.26458332px"
         y="73.376038"
         x="20.847023"
         id="tspan4542" /></text>
    <g
       id="text4548"
       style="font-style:normal;font-variant:normal;font-weight:normal;font-stretch:normal;font-size:10.58333302px;line-height:6.61458302px;font-family:'Brandon Grotesque';-inkscape-font-specification:'Brandon Grotesque';letter-spacing:0px;word-spacing:0px;fill:#000000;fill-opacity:1;stroke:none;stroke-width:0.26458332px;stroke-linecap:butt;stroke-linejoin:miter;stroke-opacity:1"
       aria-label="foss">
      <path
         id="path4737"
         style="stroke-width:0.26458332px"
         d="m 64.784035,86.011167 v -0.940511 q 0,-0.08785 0.05684,-0.144694 0.05684,-0.05684 0.144694,-0.05684 h 0.222208 v -0.976685 q 0,-1.085205 0.594279,-1.694987 0.599447,-0.609781 1.550293,-0.609781 0.382406,0 0.759644,0.129191 0.382405,0.129191 0.532267,0.273885 0.04651,0.04134 0.05684,0.113688 0.0052,0.02067 0.0052,0.04134 0,0.04651 -0.02067,0.08785 l -0.444417,0.878499 q -0.02584,0.05684 -0.103353,0.08268 -0.07751,0.02067 -0.139526,-0.01034 -0.330729,-0.170532 -0.54777,-0.170532 -0.320394,0 -0.475424,0.237712 -0.149861,0.232544 -0.149861,0.640787 v 0.976685 h 0.971517 q 0.08785,0 0.144694,0.05684 0.05684,0.05684 0.05684,0.144694 v 0.940511 q 0,0.08268 -0.05684,0.144694 -0.05684,0.05684 -0.144694,0.05684 h -0.971517 v 2.687174 q 0,0.07752 -0.06201,0.139527 -0.06201,0.06201 -0.139526,0.06201 H 65.40932 q -0.07751,0 -0.139527,-0.06201 -0.06201,-0.06201 -0.06201,-0.139527 v -2.687174 h -0.222208 q -0.08785,0 -0.144694,-0.05684 -0.05684,-0.06201 -0.05684,-0.144694 z" />
      <path
         id="path4739"
         style="stroke-width:0.26458332px"
         d="m 68.416888,86.972349 q 0,-0.89917 0.651123,-1.555461 0.651123,-0.656291 1.550293,-0.656291 0.89917,0 1.550293,0.656291 0.651123,0.656291 0.651123,1.555461 0,0.914672 -0.651123,1.576131 -0.645956,0.65629 -1.550293,0.65629 -0.904338,0 -1.555461,-0.65629 -0.645955,-0.661459 -0.645955,-1.576131 z m 1.364258,0 q 0,0.356567 0.242879,0.614949 0.248047,0.253215 0.594279,0.253215 0.346232,0 0.589111,-0.253215 0.248047,-0.258382 0.248047,-0.614949 0,-0.3514 -0.248047,-0.594279 -0.242879,-0.248047 -0.589111,-0.248047 -0.346232,0 -0.594279,0.248047 -0.242879,0.242879 -0.242879,0.594279 z" />
      <path
         id="path4741"
         style="stroke-width:0.26458332px"
         d="m 73.377825,86.042173 q 0,-0.563273 0.418579,-0.919841 0.418579,-0.361735 1.235067,-0.361735 0.45992,0 0.826823,0.09819 0.37207,0.09819 0.578776,0.232544 0.191203,0.129191 0.10852,0.263549 l -0.392741,0.718303 q -0.02584,0.04651 -0.09302,0.06718 -0.06718,0.02067 -0.129191,0 -0.485759,-0.248047 -0.89917,-0.248047 -0.232544,0 -0.232544,0.149862 0,0.170532 0.475423,0.341064 0.356567,0.124024 0.594279,0.24288 0.237712,0.113688 0.444417,0.28422 0.211874,0.170532 0.310059,0.408244 0.103353,0.232544 0.103353,0.542602 0,0.583944 -0.470256,0.966349 -0.465088,0.377238 -1.322916,0.377238 -0.490926,0 -0.8785,-0.103352 -0.382405,-0.103353 -0.558105,-0.24288 -0.134359,-0.113688 -0.07235,-0.222208 l 0.366903,-0.728638 q 0.02584,-0.05168 0.09302,-0.08268 0.07235,-0.03617 0.129191,-0.0052 0.501262,0.273885 0.956014,0.273885 0.08268,0 0.139527,-0.04651 0.06201,-0.04651 0.06201,-0.139526 0,-0.227376 -0.604614,-0.444417 -1.188558,-0.408244 -1.188558,-1.421102 z" />
      <path
         id="path4743"
         style="stroke-width:0.26458332px"
         d="m 77.305234,86.042173 q 0,-0.563273 0.418579,-0.919841 0.418579,-0.361735 1.235067,-0.361735 0.45992,0 0.826823,0.09819 0.37207,0.09819 0.578776,0.232544 0.191203,0.129191 0.10852,0.263549 l -0.39274,0.718303 q -0.02584,0.04651 -0.09302,0.06718 -0.06718,0.02067 -0.129191,0 -0.485759,-0.248047 -0.89917,-0.248047 -0.232544,0 -0.232544,0.149862 0,0.170532 0.475423,0.341064 0.356568,0.124024 0.594279,0.24288 0.237712,0.113688 0.444418,0.28422 0.211873,0.170532 0.310058,0.408244 0.103353,0.232544 0.103353,0.542602 0,0.583944 -0.470256,0.966349 -0.465087,0.377238 -1.322916,0.377238 -0.490926,0 -0.878499,-0.103352 -0.382406,-0.103353 -0.558106,-0.24288 -0.134359,-0.113688 -0.07235,-0.222208 l 0.366903,-0.728638 q 0.02584,-0.05168 0.09302,-0.08268 0.07235,-0.03617 0.129191,-0.0052 0.501262,0.273885 0.956014,0.273885 0.08268,0 0.139527,-0.04651 0.06201,-0.04651 0.06201,-0.139526 0,-0.227376 -0.604614,-0.444417 -1.188558,-0.408244 -1.188558,-1.421102 z" />
    </g>
    <g
       id="text4560"
       style="font-style:normal;font-variant:normal;font-weight:normal;font-stretch:normal;font-size:10.58333302px;line-height:6.61458302px;font-family:'Brandon Grotesque';-inkscape-font-specification:'Brandon Grotesque';letter-spacing:0px;word-spacing:0px;fill:#000000;fill-opacity:1;stroke:none;stroke-width:0.26458332px;stroke-linecap:butt;stroke-linejoin:miter;stroke-opacity:1"
       aria-label="iimpi">
      <path
         id="path4787"
         style="stroke-width:0.26458332px"
         d="m 121.57949,62.91241 q 0,-0.3514 0.24288,-0.599447 0.24804,-0.248047 0.59428,-0.248047 0.3514,0 0.59944,0.253215 0.24805,0.248047 0.24805,0.594279 0,0.346232 -0.24805,0.594279 -0.24804,0.242879 -0.59944,0.242879 -0.3514,0 -0.59428,-0.242879 -0.24288,-0.248047 -0.24288,-0.594279 z m 0.0672,6.149495 v -3.829224 q 0,-0.08785 0.0568,-0.144694 0.062,-0.05684 0.1447,-0.05684 h 1.16272 q 0.0827,0 0.13952,0.05684 0.062,0.05684 0.062,0.144694 v 3.829224 q 0,0.07752 -0.062,0.139526 -0.062,0.06201 -0.13952,0.06201 h -1.16272 q -0.0775,0 -0.13953,-0.06201 -0.062,-0.06201 -0.062,-0.139526 z" />
      <path
         id="path4789"
         style="stroke-width:0.26458332px"
         d="m 124.28733,62.91241 q 0,-0.3514 0.24288,-0.599447 0.24805,-0.248047 0.59428,-0.248047 0.3514,0 0.59945,0.253215 0.24804,0.248047 0.24804,0.594279 0,0.346232 -0.24804,0.594279 -0.24805,0.242879 -0.59945,0.242879 -0.3514,0 -0.59428,-0.242879 -0.24288,-0.248047 -0.24288,-0.594279 z m 0.0672,6.149495 v -3.829224 q 0,-0.08785 0.0568,-0.144694 0.062,-0.05684 0.14469,-0.05684 h 1.16272 q 0.0827,0 0.13953,0.05684 0.062,0.05684 0.062,0.144694 v 3.829224 q 0,0.07752 -0.062,0.139526 -0.062,0.06201 -0.13953,0.06201 h -1.16272 q -0.0775,0 -0.13953,-0.06201 -0.062,-0.06201 -0.062,-0.139526 z" />
      <path
         id="path4791"
         style="stroke-width:0.26458332px"
         d="m 127.06236,69.061905 v -3.829224 q 0,-0.08785 0.0568,-0.144694 0.0568,-0.05684 0.1447,-0.05684 h 0.48575 q 0.12403,0 0.18087,0.113688 l 0.1757,0.434082 q 0.63045,-0.65629 1.43144,-0.65629 0.43408,0 0.75964,0.160197 0.33073,0.155029 0.62529,0.485758 0.64595,-0.645955 1.46244,-0.645955 0.48059,0 0.85783,0.1757 0.37724,0.1757 0.61495,0.485758 0.23771,0.304891 0.36173,0.7028 0.12403,0.397908 0.12403,0.857828 v 1.917196 q 0,0.08268 -0.0568,0.144694 -0.0568,0.05684 -0.14469,0.05684 h -1.12138 q -0.0879,0 -0.14469,-0.05684 -0.0568,-0.06201 -0.0568,-0.144694 v -1.979207 q 0,-0.341065 -0.18603,-0.563273 -0.18087,-0.227377 -0.5271,-0.227377 -0.28422,0 -0.4961,0.206706 -0.21187,0.206706 -0.21187,0.511597 v 2.051554 q 0,0.08268 -0.0568,0.144694 -0.0568,0.05684 -0.1447,0.05684 h -1.01286 q -0.0878,0 -0.14469,-0.05684 -0.0568,-0.06201 -0.0568,-0.144694 v -1.979207 q 0,-0.346232 -0.16537,-0.568441 -0.16536,-0.222209 -0.50126,-0.222209 -0.32039,0 -0.53227,0.206706 -0.21187,0.206706 -0.21187,0.532267 v 2.030884 q 0,0.07752 -0.062,0.139526 -0.0568,0.06201 -0.13436,0.06201 h -1.11104 q -0.0879,0 -0.1447,-0.05684 -0.0568,-0.06201 -0.0568,-0.144694 z" />
      <path
         id="path4793"
         style="stroke-width:0.26458332px"
         d="m 135.37193,72.234838 v -7.002157 q 0,-0.07751 0.062,-0.139526 0.062,-0.06201 0.13953,-0.06201 h 0.49609 q 0.14986,0 0.22221,0.211874 l 0.12402,0.346232 q 0.0207,-0.02584 0.0569,-0.07235 0.0413,-0.04651 0.1757,-0.160197 0.13435,-0.113688 0.28422,-0.201538 0.15502,-0.08785 0.3979,-0.160197 0.24805,-0.07235 0.50643,-0.07235 0.58395,0 1.06454,0.299723 0.48576,0.299723 0.75447,0.81132 0.27389,0.506429 0.27389,1.111043 0,0.542603 -0.17053,0.976685 -0.16537,0.428914 -0.45992,0.697632 -0.28939,0.268717 -0.66663,0.408243 -0.37207,0.139527 -0.80615,0.139527 -0.24805,0 -0.50643,-0.06718 -0.25322,-0.06201 -0.37207,-0.129191 v 3.064413 q 0,0.07751 -0.062,0.139526 -0.062,0.06201 -0.13953,0.06201 h -1.17305 q -0.0775,0 -0.13953,-0.06201 -0.062,-0.06201 -0.062,-0.139526 z m 1.4056,-5.079793 q 0,0.356567 0.24288,0.604614 0.24287,0.242879 0.60461,0.242879 0.36173,0 0.60978,-0.242879 0.24805,-0.248047 0.24805,-0.604614 0,-0.366903 -0.24805,-0.61495 -0.24805,-0.248047 -0.60978,-0.248047 -0.36174,0 -0.60461,0.248047 -0.24288,0.248047 -0.24288,0.61495 z" />
      <path
         id="path4795"
         style="stroke-width:0.26458332px"
         d="m 140.69977,62.91241 q 0,-0.3514 0.24288,-0.599447 0.24804,-0.248047 0.59428,-0.248047 0.3514,0 0.59944,0.253215 0.24805,0.248047 0.24805,0.594279 0,0.346232 -0.24805,0.594279 -0.24804,0.242879 -0.59944,0.242879 -0.3514,0 -0.59428,-0.242879 -0.24288,-0.248047 -0.24288,-0.594279 z m 0.0672,6.149495 v -3.829224 q 0,-0.08785 0.0568,-0.144694 0.062,-0.05684 0.14469,-0.05684 h 1.16272 q 0.0827,0 0.13953,0.05684 0.062,0.05684 0.062,0.144694 v 3.829224 q 0,0.07752 -0.062,0.139526 -0.062,0.06201 -0.13953,0.06201 h -1.16272 q -0.0775,0 -0.13952,-0.06201 -0.062,-0.06201 -0.062,-0.139526 z" />
    </g>
    <g
       id="text4564"
       style="font-style:normal;font-variant:normal;font-weight:normal;font-stretch:normal;font-size:10.58333302px;line-height:6.61458302px;font-family:'Brandon Grotesque';-inkscape-font-specification:'Brandon Grotesque';letter-spacing:0px;word-spacing:0px;fill:#000000;fill-opacity:1;stroke:none;stroke-width:0.26458332px;stroke-linecap:butt;stroke-linejoin:miter;stroke-opacity:1"
       aria-label="gompic">
      <path
         id="path4763"
         style="stroke-width:0.26458332px"
         d="m 28.182159,68.881037 q 0,-0.232544 0.08785,-0.439249 0.08785,-0.206706 0.206705,-0.330729 0.124024,-0.129191 0.248047,-0.222209 0.124024,-0.09302 0.211874,-0.134359 l 0.08785,-0.03617 q -0.03617,-0.03617 -0.08785,-0.103353 -0.04651,-0.07235 -0.134359,-0.320394 -0.08268,-0.248047 -0.08268,-0.537435 0,-0.744141 0.54777,-1.286743 0.54777,-0.54777 1.312581,-0.54777 h 1.999878 q 0.08785,0 0.144694,0.05684 0.05684,0.05684 0.05684,0.144694 v 0.434082 q 0,0.124023 -0.113688,0.180867 l -0.61495,0.222209 q 0.0155,0.0155 0.04134,0.04134 0.03101,0.02584 0.09819,0.124024 0.07235,0.09302 0.124023,0.201538 0.05168,0.10852 0.09302,0.289388 0.04651,0.1757 0.04651,0.37207 0,0.620117 -0.516765,1.111043 -0.511596,0.485759 -1.312581,0.485759 h -0.764811 q -0.165365,0 -0.258382,0.07751 -0.08785,0.07752 -0.08785,0.206706 0,0.139526 0.09819,0.217041 0.103353,0.07235 0.237711,0.07235 h 1.271241 q 0.769979,0 1.29191,0.428915 0.5271,0.428914 0.5271,1.11621 0,0.816488 -0.594279,1.328085 -0.594279,0.511596 -1.788004,0.511596 -0.589112,0 -1.033529,-0.129191 -0.444417,-0.129191 -0.692464,-0.346232 -0.248047,-0.211873 -0.366903,-0.45992 -0.118856,-0.242879 -0.118856,-0.506429 0,-0.222209 0.07752,-0.413412 0.08268,-0.191202 0.206706,-0.315226 0.124023,-0.118856 0.206705,-0.186035 0.08268,-0.06201 0.15503,-0.09819 v -0.03101 q -0.07752,-0.02584 -0.191203,-0.09302 -0.108521,-0.06201 -0.26355,-0.19637 -0.149861,-0.129191 -0.253214,-0.366903 -0.103353,-0.232544 -0.103353,-0.521932 z m 1.617472,1.927531 q 0,0.227377 0.191203,0.361735 0.19637,0.134359 0.568441,0.134359 0.377238,0 0.56844,-0.139526 0.196371,-0.134359 0.196371,-0.356568 0,-0.191203 -0.186035,-0.320394 -0.180868,-0.124023 -0.578776,-0.124023 -0.315227,0 -0.537435,0.113688 -0.222209,0.113688 -0.222209,0.330729 z m 0.26355,-3.958414 q 0,0.237711 0.160197,0.397908 0.165364,0.155029 0.403076,0.155029 0.242879,0 0.397908,-0.155029 0.160197,-0.160197 0.160197,-0.397908 0,-0.237712 -0.160197,-0.392741 -0.155029,-0.155029 -0.397908,-0.155029 -0.237712,0 -0.403076,0.160196 -0.160197,0.15503 -0.160197,0.387574 z" />
      <path
         id="path4765"
         style="stroke-width:0.26458332px"
         d="m 33.225778,67.134374 q 0,-0.89917 0.651123,-1.555461 0.651123,-0.65629 1.550293,-0.65629 0.89917,0 1.550293,0.65629 0.651123,0.656291 0.651123,1.555461 0,0.914673 -0.651123,1.576131 -0.645955,0.656291 -1.550293,0.656291 -0.904337,0 -1.55546,-0.656291 -0.645956,-0.661458 -0.645956,-1.576131 z m 1.364258,0 q 0,0.356567 0.242879,0.61495 0.248047,0.253214 0.594279,0.253214 0.346232,0 0.589112,-0.253214 0.248047,-0.258383 0.248047,-0.61495 0,-0.3514 -0.248047,-0.594279 -0.24288,-0.248047 -0.589112,-0.248047 -0.346232,0 -0.594279,0.248047 -0.242879,0.242879 -0.242879,0.594279 z" />
      <path
         id="path4767"
         style="stroke-width:0.26458332px"
         d="m 38.455433,69.061905 v -3.829224 q 0,-0.08785 0.05684,-0.144694 0.05684,-0.05684 0.144694,-0.05684 h 0.485758 q 0.124024,0 0.180868,0.113688 l 0.1757,0.434082 q 0.630452,-0.65629 1.431437,-0.65629 0.434082,0 0.759643,0.160197 0.33073,0.155029 0.625285,0.485758 0.645956,-0.645955 1.462443,-0.645955 0.480591,0 0.857829,0.1757 0.377238,0.1757 0.61495,0.485758 0.237711,0.304891 0.361735,0.7028 0.124023,0.397908 0.124023,0.857828 v 1.917196 q 0,0.08268 -0.05684,0.144694 -0.05684,0.05684 -0.144694,0.05684 h -1.121379 q -0.08785,0 -0.144694,-0.05684 -0.05684,-0.06201 -0.05684,-0.144694 v -1.979207 q 0,-0.341065 -0.186035,-0.563273 -0.180867,-0.227377 -0.527099,-0.227377 -0.284221,0 -0.496094,0.206706 -0.211874,0.206706 -0.211874,0.511597 v 2.051554 q 0,0.08268 -0.05684,0.144694 -0.05684,0.05684 -0.144694,0.05684 h -1.012858 q -0.08785,0 -0.144694,-0.05684 -0.05684,-0.06201 -0.05684,-0.144694 v -1.979207 q 0,-0.346232 -0.165364,-0.568441 -0.165365,-0.222209 -0.501262,-0.222209 -0.320394,0 -0.532267,0.206706 -0.211873,0.206706 -0.211873,0.532267 v 2.030884 q 0,0.07752 -0.06201,0.139526 -0.05684,0.06201 -0.134359,0.06201 h -1.111043 q -0.08785,0 -0.144694,-0.05684 -0.05684,-0.06201 -0.05684,-0.144694 z" />
      <path
         id="path4769"
         style="stroke-width:0.26458332px"
         d="m 46.765003,72.234838 v -7.002157 q 0,-0.07751 0.06201,-0.139526 0.06201,-0.06201 0.139526,-0.06201 h 0.496094 q 0.149862,0 0.222209,0.211874 l 0.124023,0.346232 q 0.02067,-0.02584 0.05684,-0.07235 0.04134,-0.04651 0.1757,-0.160197 0.134359,-0.113688 0.28422,-0.201538 0.15503,-0.08785 0.397909,-0.160197 0.248047,-0.07235 0.506429,-0.07235 0.583944,0 1.064534,0.299723 0.485759,0.299723 0.754476,0.81132 0.273885,0.506429 0.273885,1.111043 0,0.542603 -0.170532,0.976685 -0.165364,0.428914 -0.45992,0.697632 -0.289388,0.268717 -0.666626,0.408243 -0.37207,0.139527 -0.806152,0.139527 -0.248047,0 -0.506429,-0.06718 -0.253215,-0.06201 -0.372071,-0.129191 v 3.064413 q 0,0.07751 -0.06201,0.139526 -0.06201,0.06201 -0.139527,0.06201 h -1.173055 q -0.07751,0 -0.139526,-0.06201 -0.06201,-0.06201 -0.06201,-0.139526 z m 1.405599,-5.079793 q 0,0.356567 0.242879,0.604614 0.24288,0.242879 0.604615,0.242879 0.361735,0 0.609781,-0.242879 0.248047,-0.248047 0.248047,-0.604614 0,-0.366903 -0.248047,-0.61495 -0.248046,-0.248047 -0.609781,-0.248047 -0.361735,0 -0.604615,0.248047 -0.242879,0.248047 -0.242879,0.61495 z" />
      <path
         id="path4771"
         style="stroke-width:0.26458332px"
         d="m 52.092843,62.91241 q 0,-0.3514 0.24288,-0.599447 0.248046,-0.248047 0.594279,-0.248047 0.351399,0 0.599446,0.253215 0.248047,0.248047 0.248047,0.594279 0,0.346232 -0.248047,0.594279 -0.248047,0.242879 -0.599446,0.242879 -0.3514,0 -0.594279,-0.242879 -0.24288,-0.248047 -0.24288,-0.594279 z m 0.06718,6.149495 v -3.829224 q 0,-0.08785 0.05684,-0.144694 0.06201,-0.05684 0.144694,-0.05684 h 1.162719 q 0.08268,0 0.139527,0.05684 0.06201,0.05684 0.06201,0.144694 v 3.829224 q 0,0.07752 -0.06201,0.139526 -0.06201,0.06201 -0.139527,0.06201 h -1.162719 q -0.07752,0 -0.139527,-0.06201 -0.06201,-0.06201 -0.06201,-0.139526 z" />
      <path
         id="path4773"
         style="stroke-width:0.26458332px"
         d="m 54.537139,67.144709 q 0,-0.609782 0.315226,-1.121378 0.320394,-0.516765 0.842326,-0.806153 0.5271,-0.294555 1.126546,-0.294555 0.956014,0 1.591635,0.764811 0.05168,0.07235 0.03101,0.149862 -0.0155,0.07751 -0.08785,0.144694 l -0.630452,0.604614 q -0.04134,0.03617 -0.118856,0.03101 -0.07751,-0.01034 -0.118856,-0.05168 -0.258382,-0.273885 -0.609781,-0.273885 -0.346233,0 -0.599447,0.253215 -0.248047,0.248047 -0.248047,0.599446 0,0.356568 0.237712,0.609782 0.242879,0.248047 0.589111,0.248047 0.253215,0 0.403076,-0.08268 0.155029,-0.08268 0.315226,-0.242879 0.129191,-0.129192 0.232544,-0.04134 l 0.63562,0.547771 q 0.108521,0.09819 0.108521,0.191202 0,0.05168 -0.03617,0.103353 -0.589111,0.888835 -1.705322,0.888835 -0.91984,0 -1.596802,-0.640788 -0.676961,-0.645955 -0.676961,-1.581299 z" />
    </g>
    <g
       id="text4568"
       style="font-style:normal;font-variant:normal;font-weight:normal;font-stretch:normal;font-size:10.58333302px;line-height:6.61458302px;font-family:'Brandon Grotesque';-inkscape-font-specification:'Brandon Grotesque';letter-spacing:0px;word-spacing:0px;fill:#000000;fill-opacity:1;stroke:none;stroke-width:0.26458332px;stroke-linecap:butt;stroke-linejoin:miter;stroke-opacity:1"
       aria-label="fosscuda">
      <path
         id="path4746"
         style="stroke-width:0.26458332px"
         d="m 17.477322,86.011167 v -0.940511 q 0,-0.08785 0.05684,-0.144694 0.05684,-0.05684 0.144694,-0.05684 h 0.222208 v -0.976685 q 0,-1.085205 0.594279,-1.694987 0.599447,-0.609781 1.550293,-0.609781 0.382406,0 0.759644,0.129191 0.382405,0.129191 0.532267,0.273885 0.04651,0.04134 0.05684,0.113688 0.0052,0.02067 0.0052,0.04134 0,0.04651 -0.02067,0.08785 l -0.444417,0.878499 q -0.02584,0.05684 -0.103353,0.08268 -0.07752,0.02067 -0.139526,-0.01034 -0.33073,-0.170532 -0.547771,-0.170532 -0.320393,0 -0.475423,0.237712 -0.149861,0.232544 -0.149861,0.640787 v 0.976685 h 0.971517 q 0.08785,0 0.144694,0.05684 0.05684,0.05684 0.05684,0.144694 v 0.940511 q 0,0.08268 -0.05684,0.144694 -0.05684,0.05684 -0.144694,0.05684 h -0.971517 v 2.687174 q 0,0.07752 -0.06201,0.139527 -0.06201,0.06201 -0.139526,0.06201 h -1.214397 q -0.07751,0 -0.139526,-0.06201 -0.06201,-0.06201 -0.06201,-0.139527 V 86.212705 H 17.67886 q -0.08785,0 -0.144694,-0.05684 -0.05684,-0.06201 -0.05684,-0.144694 z" />
      <path
         id="path4748"
         style="stroke-width:0.26458332px"
         d="m 21.110175,86.972349 q 0,-0.89917 0.651123,-1.555461 0.651123,-0.656291 1.550293,-0.656291 0.89917,0 1.550293,0.656291 0.651123,0.656291 0.651123,1.555461 0,0.914672 -0.651123,1.576131 -0.645956,0.65629 -1.550293,0.65629 -0.904338,0 -1.555461,-0.65629 -0.645955,-0.661459 -0.645955,-1.576131 z m 1.364257,0 q 0,0.356567 0.24288,0.614949 0.248047,0.253215 0.594279,0.253215 0.346232,0 0.589111,-0.253215 0.248047,-0.258382 0.248047,-0.614949 0,-0.3514 -0.248047,-0.594279 -0.242879,-0.248047 -0.589111,-0.248047 -0.346232,0 -0.594279,0.248047 -0.24288,0.242879 -0.24288,0.594279 z" />
      <path
         id="path4750"
         style="stroke-width:0.26458332px"
         d="m 26.071112,86.042173 q 0,-0.563273 0.418579,-0.919841 0.418579,-0.361735 1.235067,-0.361735 0.45992,0 0.826823,0.09819 0.37207,0.09819 0.578776,0.232544 0.191202,0.129191 0.10852,0.263549 l -0.392741,0.718303 q -0.02584,0.04651 -0.09302,0.06718 -0.06718,0.02067 -0.129191,0 -0.485759,-0.248047 -0.89917,-0.248047 -0.232544,0 -0.232544,0.149862 0,0.170532 0.475423,0.341064 0.356567,0.124024 0.594279,0.24288 0.237712,0.113688 0.444417,0.28422 0.211874,0.170532 0.310059,0.408244 0.103353,0.232544 0.103353,0.542602 0,0.583944 -0.470256,0.966349 -0.465088,0.377238 -1.322916,0.377238 -0.490927,0 -0.8785,-0.103352 -0.382405,-0.103353 -0.558105,-0.24288 -0.134359,-0.113688 -0.07235,-0.222208 l 0.366902,-0.728638 q 0.02584,-0.05168 0.09302,-0.08268 0.07235,-0.03617 0.129191,-0.0052 0.501261,0.273885 0.956014,0.273885 0.08268,0 0.139526,-0.04651 0.06201,-0.04651 0.06201,-0.139526 0,-0.227376 -0.604614,-0.444417 -1.188558,-0.408244 -1.188558,-1.421102 z" />
      <path
         id="path4752"
         style="stroke-width:0.26458332px"
         d="m 29.998521,86.042173 q 0,-0.563273 0.418579,-0.919841 0.418579,-0.361735 1.235067,-0.361735 0.45992,0 0.826823,0.09819 0.37207,0.09819 0.578776,0.232544 0.191203,0.129191 0.10852,0.263549 l -0.392741,0.718303 q -0.02584,0.04651 -0.09302,0.06718 -0.06718,0.02067 -0.129191,0 -0.485759,-0.248047 -0.89917,-0.248047 -0.232544,0 -0.232544,0.149862 0,0.170532 0.475423,0.341064 0.356568,0.124024 0.594279,0.24288 0.237712,0.113688 0.444417,0.28422 0.211874,0.170532 0.310059,0.408244 0.103353,0.232544 0.103353,0.542602 0,0.583944 -0.470256,0.966349 -0.465088,0.377238 -1.322916,0.377238 -0.490926,0 -0.8785,-0.103352 -0.382405,-0.103353 -0.558105,-0.24288 -0.134359,-0.113688 -0.07235,-0.222208 l 0.366903,-0.728638 q 0.02584,-0.05168 0.09302,-0.08268 0.07235,-0.03617 0.129191,-0.0052 0.501262,0.273885 0.956014,0.273885 0.08268,0 0.139527,-0.04651 0.06201,-0.04651 0.06201,-0.139526 0,-0.227376 -0.604614,-0.444417 -1.188558,-0.408244 -1.188558,-1.421102 z" />
      <path
         id="path4754"
         style="stroke-width:0.26458332px"
         d="m 33.863918,86.982684 q 0,-0.609782 0.315226,-1.121379 0.320394,-0.516764 0.842326,-0.806152 0.527099,-0.294556 1.126546,-0.294556 0.956014,0 1.591634,0.764812 0.05168,0.07235 0.03101,0.149861 -0.0155,0.07752 -0.08785,0.144694 l -0.630453,0.604614 q -0.04134,0.03617 -0.118855,0.03101 -0.07751,-0.01033 -0.118856,-0.05168 -0.258382,-0.273885 -0.609782,-0.273885 -0.346232,0 -0.599447,0.253214 -0.248046,0.248047 -0.248046,0.599447 0,0.356567 0.237711,0.609782 0.242879,0.248047 0.589111,0.248047 0.253215,0 0.403077,-0.08268 0.155029,-0.08268 0.315226,-0.242879 0.129191,-0.129191 0.232544,-0.04134 l 0.63562,0.54777 q 0.10852,0.09819 0.10852,0.191203 0,0.05168 -0.03617,0.103353 -0.589111,0.888834 -1.705322,0.888834 -0.919841,0 -1.596802,-0.640787 -0.676961,-0.645956 -0.676961,-1.581299 z" />
      <path
         id="path4756"
         style="stroke-width:0.26458332px"
         d="m 38.540635,86.982684 v -1.912028 q 0,-0.08785 0.05684,-0.144694 0.06201,-0.05684 0.144694,-0.05684 h 1.131714 q 0.08268,0 0.139527,0.05684 0.06201,0.05684 0.06201,0.144694 v 1.958537 q 0,0.341064 0.180868,0.578776 0.180867,0.232544 0.496094,0.232544 0.294555,0 0.465088,-0.227377 0.170532,-0.227376 0.170532,-0.521932 v -2.020548 q 0,-0.201538 0.222208,-0.201538 h 1.080038 q 0.08268,0 0.139526,0.05684 0.06201,0.05684 0.06201,0.144694 v 3.829223 q 0,0.07752 -0.06201,0.139527 -0.06201,0.06201 -0.139526,0.06201 h -0.496094 q -0.139526,0 -0.201538,-0.149862 l -0.160197,-0.387573 q -0.299723,0.28422 -0.454753,0.387573 -0.403076,0.253214 -0.971516,0.253214 -0.459921,0 -0.821656,-0.175699 -0.361735,-0.1757 -0.589111,-0.480591 -0.222209,-0.310059 -0.341064,-0.707967 -0.113689,-0.397909 -0.113689,-0.857829 z" />
      <path
         id="path4758"
         style="stroke-width:0.26458332px"
         d="m 43.723782,86.982684 q 0,-0.542603 0.165364,-0.971517 0.170532,-0.434082 0.465088,-0.702799 0.294556,-0.268718 0.666626,-0.408244 0.377238,-0.139527 0.81132,-0.139527 0.242879,0 0.501261,0.06718 0.258382,0.06718 0.377238,0.134358 v -3.06958 q 0,-0.07751 0.06201,-0.139526 0.06201,-0.06201 0.139526,-0.06201 h 1.173055 q 0.07751,0 0.139527,0.06201 0.06201,0.06201 0.06201,0.139526 v 7.007324 q 0,0.07752 -0.06201,0.139527 -0.06201,0.06201 -0.139527,0.06201 h -0.496093 q -0.149862,0 -0.222209,-0.211874 l -0.129191,-0.3514 q -0.02067,0.02584 -0.06201,0.07235 -0.03617,0.04651 -0.170532,0.160197 -0.134359,0.113689 -0.28422,0.201538 -0.149862,0.08785 -0.397909,0.160197 -0.242879,0.07235 -0.501261,0.07235 -0.888835,0 -1.493449,-0.645955 -0.604614,-0.651123 -0.604614,-1.576131 z m 1.452107,-0.01034 q 0,0.366902 0.248047,0.620117 0.248047,0.248047 0.609782,0.248047 0.361735,0 0.604614,-0.248047 0.242879,-0.253215 0.242879,-0.620117 0,-0.356568 -0.242879,-0.599447 -0.242879,-0.242879 -0.604614,-0.242879 -0.361735,0 -0.609782,0.242879 -0.248047,0.242879 -0.248047,0.599447 z" />
      <path
         id="path4760"
         style="stroke-width:0.26458332px"
         d="m 49.139472,87.809507 q 0,-0.625285 0.423746,-1.018026 0.423747,-0.397908 1.131714,-0.397908 0.211874,0 0.413412,0.04134 0.206705,0.04134 0.304891,0.08268 l 0.09819,0.04134 q 0,-0.341064 -0.108521,-0.480591 -0.10852,-0.139526 -0.465088,-0.139526 -0.211873,0 -0.532267,0.04651 -0.315226,0.04651 -0.521932,0.10852 -0.04134,0.01034 -0.07751,0.01034 -0.149862,0 -0.1757,-0.232544 l -0.09819,-0.666626 q -0.0052,-0.03617 -0.0052,-0.06201 0,-0.165365 0.165364,-0.222209 0.108521,-0.03617 0.568441,-0.09819 0.45992,-0.06201 0.837158,-0.06201 0.971517,0 1.379761,0.423747 0.408244,0.423747 0.408244,1.374593 v 2.340942 q 0,0.07752 -0.06201,0.139527 -0.06201,0.06201 -0.139526,0.06201 h -0.465088 q -0.129191,0 -0.191203,-0.139527 l -0.144694,-0.28422 q -0.160197,0.144694 -0.299723,0.242879 -0.134359,0.09819 -0.403076,0.191203 -0.268718,0.09302 -0.578776,0.09302 -0.63562,0 -1.049032,-0.387573 -0.413411,-0.387573 -0.413411,-1.00769 z m 1.37976,-0.103353 q 0,0.191203 0.129191,0.330729 0.134359,0.134359 0.325562,0.134359 0.191203,0 0.325561,-0.134359 0.139527,-0.139526 0.139527,-0.330729 -0.01033,-0.186035 -0.144694,-0.315226 -0.134359,-0.129191 -0.320394,-0.129191 -0.191203,0 -0.325562,0.134358 -0.129191,0.129191 -0.129191,0.310059 z" />
    </g>
    <g
       id="text4572"
       style="font-style:normal;font-variant:normal;font-weight:normal;font-stretch:normal;font-size:10.58333302px;line-height:6.61458302px;font-family:'Brandon Grotesque';-inkscape-font-specification:'Brandon Grotesque';letter-spacing:0px;word-spacing:0px;fill:#000000;fill-opacity:1;stroke:none;stroke-width:0.26458332px;stroke-linecap:butt;stroke-linejoin:miter;stroke-opacity:1"
       aria-label="iimpic">
      <path
         id="path4683"
         style="stroke-width:0.26458332px"
         d="m 154.45368,62.91241 q 0,-0.3514 0.24288,-0.599447 0.24805,-0.248047 0.59428,-0.248047 0.3514,0 0.59944,0.253215 0.24805,0.248047 0.24805,0.594279 0,0.346232 -0.24805,0.594279 -0.24804,0.242879 -0.59944,0.242879 -0.3514,0 -0.59428,-0.242879 -0.24288,-0.248047 -0.24288,-0.594279 z m 0.0672,6.149495 v -3.829224 q 0,-0.08785 0.0568,-0.144694 0.062,-0.05684 0.1447,-0.05684 h 1.16272 q 0.0827,0 0.13952,0.05684 0.062,0.05684 0.062,0.144694 v 3.829224 q 0,0.07752 -0.062,0.139526 -0.062,0.06201 -0.13952,0.06201 h -1.16272 q -0.0775,0 -0.13953,-0.06201 -0.062,-0.06201 -0.062,-0.139526 z" />
      <path
         id="path4685"
         style="stroke-width:0.26458332px"
         d="m 157.16152,62.91241 q 0,-0.3514 0.24288,-0.599447 0.24805,-0.248047 0.59428,-0.248047 0.3514,0 0.59945,0.253215 0.24805,0.248047 0.24805,0.594279 0,0.346232 -0.24805,0.594279 -0.24805,0.242879 -0.59945,0.242879 -0.3514,0 -0.59428,-0.242879 -0.24288,-0.248047 -0.24288,-0.594279 z m 0.0672,6.149495 v -3.829224 q 0,-0.08785 0.0568,-0.144694 0.062,-0.05684 0.14469,-0.05684 h 1.16272 q 0.0827,0 0.13953,0.05684 0.062,0.05684 0.062,0.144694 v 3.829224 q 0,0.07752 -0.062,0.139526 -0.062,0.06201 -0.13953,0.06201 h -1.16272 q -0.0775,0 -0.13952,-0.06201 -0.062,-0.06201 -0.062,-0.139526 z" />
      <path
         id="path4687"
         style="stroke-width:0.26458332px"
         d="m 159.93655,69.061905 v -3.829224 q 0,-0.08785 0.0568,-0.144694 0.0568,-0.05684 0.1447,-0.05684 h 0.48576 q 0.12402,0 0.18086,0.113688 l 0.1757,0.434082 q 0.63046,-0.65629 1.43144,-0.65629 0.43408,0 0.75964,0.160197 0.33073,0.155029 0.62529,0.485758 0.64595,-0.645955 1.46244,-0.645955 0.48059,0 0.85783,0.1757 0.37724,0.1757 0.61495,0.485758 0.23771,0.304891 0.36173,0.7028 0.12403,0.397908 0.12403,0.857828 v 1.917196 q 0,0.08268 -0.0568,0.144694 -0.0568,0.05684 -0.14469,0.05684 h -1.12138 q -0.0878,0 -0.14469,-0.05684 -0.0568,-0.06201 -0.0568,-0.144694 v -1.979207 q 0,-0.341065 -0.18603,-0.563273 -0.18087,-0.227377 -0.5271,-0.227377 -0.28422,0 -0.4961,0.206706 -0.21187,0.206706 -0.21187,0.511597 v 2.051554 q 0,0.08268 -0.0568,0.144694 -0.0568,0.05684 -0.1447,0.05684 h -1.01285 q -0.0879,0 -0.1447,-0.05684 -0.0568,-0.06201 -0.0568,-0.144694 v -1.979207 q 0,-0.346232 -0.16537,-0.568441 -0.16536,-0.222209 -0.50126,-0.222209 -0.32039,0 -0.53227,0.206706 -0.21187,0.206706 -0.21187,0.532267 v 2.030884 q 0,0.07752 -0.062,0.139526 -0.0568,0.06201 -0.13436,0.06201 h -1.11104 q -0.0879,0 -0.1447,-0.05684 -0.0568,-0.06201 -0.0568,-0.144694 z" />
      <path
         id="path4689"
         style="stroke-width:0.26458332px"
         d="m 168.24612,72.234838 v -7.002157 q 0,-0.07751 0.062,-0.139526 0.062,-0.06201 0.13953,-0.06201 h 0.49609 q 0.14986,0 0.22221,0.211874 l 0.12402,0.346232 q 0.0207,-0.02584 0.0568,-0.07235 0.0413,-0.04651 0.1757,-0.160197 0.13436,-0.113688 0.28422,-0.201538 0.15503,-0.08785 0.39791,-0.160197 0.24804,-0.07235 0.50642,-0.07235 0.58395,0 1.06454,0.299723 0.48576,0.299723 0.75447,0.81132 0.27389,0.506429 0.27389,1.111043 0,0.542603 -0.17053,0.976685 -0.16537,0.428914 -0.45992,0.697632 -0.28939,0.268717 -0.66663,0.408243 -0.37207,0.139527 -0.80615,0.139527 -0.24805,0 -0.50643,-0.06718 -0.25321,-0.06201 -0.37207,-0.129191 v 3.064413 q 0,0.07751 -0.062,0.139526 -0.062,0.06201 -0.13953,0.06201 h -1.17305 q -0.0775,0 -0.13953,-0.06201 -0.062,-0.06201 -0.062,-0.139526 z m 1.4056,-5.079793 q 0,0.356567 0.24288,0.604614 0.24288,0.242879 0.60461,0.242879 0.36174,0 0.60978,-0.242879 0.24805,-0.248047 0.24805,-0.604614 0,-0.366903 -0.24805,-0.61495 -0.24804,-0.248047 -0.60978,-0.248047 -0.36173,0 -0.60461,0.248047 -0.24288,0.248047 -0.24288,0.61495 z" />
      <path
         id="path4691"
         style="stroke-width:0.26458332px"
         d="m 173.57396,62.91241 q 0,-0.3514 0.24288,-0.599447 0.24804,-0.248047 0.59428,-0.248047 0.3514,0 0.59944,0.253215 0.24805,0.248047 0.24805,0.594279 0,0.346232 -0.24805,0.594279 -0.24804,0.242879 -0.59944,0.242879 -0.3514,0 -0.59428,-0.242879 -0.24288,-0.248047 -0.24288,-0.594279 z m 0.0672,6.149495 v -3.829224 q 0,-0.08785 0.0568,-0.144694 0.062,-0.05684 0.1447,-0.05684 h 1.16272 q 0.0827,0 0.13952,0.05684 0.062,0.05684 0.062,0.144694 v 3.829224 q 0,0.07752 -0.062,0.139526 -0.062,0.06201 -0.13952,0.06201 h -1.16272 q -0.0775,0 -0.13953,-0.06201 -0.062,-0.06201 -0.062,-0.139526 z" />
      <path
         id="path4693"
         style="stroke-width:0.26458332px"
         d="m 176.01825,67.144709 q 0,-0.609782 0.31523,-1.121378 0.32039,-0.516765 0.84233,-0.806153 0.5271,-0.294555 1.12654,-0.294555 0.95602,0 1.59164,0.764811 0.0517,0.07235 0.031,0.149862 -0.0155,0.07751 -0.0879,0.144694 l -0.63045,0.604614 q -0.0413,0.03617 -0.11886,0.03101 -0.0775,-0.01034 -0.11885,-0.05168 -0.25838,-0.273885 -0.60978,-0.273885 -0.34624,0 -0.59945,0.253215 -0.24805,0.248047 -0.24805,0.599446 0,0.356568 0.23772,0.609782 0.24287,0.248047 0.58911,0.248047 0.25321,0 0.40307,-0.08268 0.15503,-0.08268 0.31523,-0.242879 0.12919,-0.129192 0.23254,-0.04134 l 0.63562,0.547771 q 0.10852,0.09819 0.10852,0.191202 0,0.05168 -0.0362,0.103353 -0.58911,0.888835 -1.70532,0.888835 -0.91984,0 -1.5968,-0.640788 -0.67697,-0.645955 -0.67697,-1.581299 z" />
    </g>
    <g
       id="text4576"
       style="font-style:normal;font-variant:normal;font-weight:normal;font-stretch:normal;font-size:10.58333302px;line-height:6.61458302px;font-family:'Brandon Grotesque';-inkscape-font-specification:'Brandon Grotesque';letter-spacing:0px;word-spacing:0px;fill:#000000;fill-opacity:1;stroke:none;stroke-width:0.26458332px;stroke-linecap:butt;stroke-linejoin:miter;stroke-opacity:1"
       aria-label="intelcuda">
      <path
         id="path4696"
         style="stroke-width:0.26458332px"
         d="m 154.32003,82.69871 q 0,-0.351399 0.24288,-0.599446 0.24804,-0.248047 0.59428,-0.248047 0.3514,0 0.59944,0.253214 0.24805,0.248047 0.24805,0.594279 0,0.346232 -0.24805,0.594279 -0.24804,0.242879 -0.59944,0.242879 -0.3514,0 -0.59428,-0.242879 -0.24288,-0.248047 -0.24288,-0.594279 z m 0.0672,6.149496 v -3.829224 q 0,-0.08785 0.0568,-0.144694 0.062,-0.05684 0.1447,-0.05684 h 1.16271 q 0.0827,0 0.13953,0.05684 0.062,0.05684 0.062,0.144694 v 3.829224 q 0,0.07751 -0.062,0.139526 -0.062,0.06201 -0.13953,0.06201 h -1.16271 q -0.0775,0 -0.13953,-0.06201 -0.062,-0.06201 -0.062,-0.139526 z" />
      <path
         id="path4698"
         style="stroke-width:0.26458332px"
         d="m 157.09505,88.848206 v -3.829224 q 0,-0.08785 0.0569,-0.144694 0.062,-0.05684 0.14469,-0.05684 h 0.49609 q 0.0517,0 0.10852,0.03617 0.062,0.03617 0.0827,0.08785 l 0.16536,0.423747 q 0.60462,-0.656291 1.49345,-0.656291 0.94568,0 1.47795,0.635621 0.53226,0.630452 0.53226,1.576131 v 1.927531 q 0,0.07751 -0.062,0.139526 -0.062,0.06201 -0.13952,0.06201 h -1.13172 q -0.0879,0 -0.14469,-0.05684 -0.0568,-0.06201 -0.0568,-0.144694 v -1.979208 q 0,-0.335897 -0.1912,-0.563273 -0.18603,-0.227376 -0.5271,-0.227376 -0.32556,0 -0.56844,0.211873 -0.23771,0.206706 -0.23771,0.5271 v 2.030884 q 0,0.201538 -0.18604,0.201538 h -1.11104 q -0.0775,0 -0.13953,-0.06201 -0.062,-0.06201 -0.062,-0.139526 z" />
      <path
         id="path4700"
         style="stroke-width:0.26458332px"
         d="m 162.35571,85.959493 v -0.940511 q 0,-0.08785 0.0569,-0.144694 0.0568,-0.05684 0.13436,-0.05684 h 0.27388 v -1.178223 q 0,-0.07751 0.062,-0.134358 0.062,-0.06201 0.13953,-0.06201 h 1.13171 q 0.0775,0 0.13436,0.06201 0.0568,0.05684 0.0568,0.134358 v 1.178223 h 0.78549 q 0.0879,0 0.14469,0.05684 0.0568,0.05684 0.0568,0.144694 v 0.940511 q 0,0.08268 -0.0568,0.144694 -0.0568,0.05684 -0.14469,0.05684 h -0.78549 v 1.322917 q 0,0.253214 0.28939,0.253214 0.0672,0 0.13953,-0.01033 0.0724,-0.0155 0.1602,-0.03617 0.0879,-0.02067 0.10852,-0.02584 0.18603,-0.03617 0.23254,0.134359 l 0.23771,0.878499 q 0.005,0.02067 0.005,0.04134 0.005,0.05168 -0.0258,0.103353 -0.0413,0.07235 -0.11885,0.09819 -0.75448,0.232544 -1.28158,0.232544 -0.60978,0 -0.94051,-0.377238 -0.33073,-0.377238 -0.33073,-1.090373 v -1.524455 h -0.27388 q -0.0775,0 -0.13436,-0.06201 -0.0569,-0.06201 -0.0569,-0.139526 z" />
      <path
         id="path4702"
         style="stroke-width:0.26458332px"
         d="m 165.97306,86.93101 q 0,-0.909505 0.63046,-1.565796 0.63562,-0.656291 1.56062,-0.656291 0.82683,0 1.41594,0.568441 0.59428,0.563273 0.59428,1.421102 0,0.144694 -0.0207,0.289388 -0.005,0.07752 -0.0672,0.129191 -0.062,0.04651 -0.13436,0.04651 h -2.53731 q 0.031,0.258382 0.23254,0.480591 0.20671,0.222208 0.57878,0.222208 0.18603,0 0.39274,-0.07751 0.21187,-0.07751 0.3514,-0.180868 0.0672,-0.05684 0.13952,-0.05684 0.0775,0 0.12403,0.05684 l 0.5271,0.63562 q 0.0517,0.06718 0.0517,0.149862 0.005,0.08268 -0.062,0.160197 -0.59945,0.599447 -1.5658,0.599447 -0.93534,0 -1.57613,-0.645956 -0.63562,-0.651123 -0.63562,-1.576131 z m 1.57613,-0.589111 h 1.13172 q -0.0155,-0.201538 -0.18604,-0.3514 -0.16536,-0.149862 -0.37207,-0.149862 -0.21187,0 -0.37724,0.149862 -0.16536,0.144694 -0.19637,0.3514 z" />
      <path
         id="path4704"
         style="stroke-width:0.26458332px"
         d="m 170.94434,88.848206 v -7.007324 q 0,-0.07751 0.062,-0.139527 0.062,-0.06201 0.13952,-0.06201 h 1.16272 q 0.0775,0 0.13953,0.06201 0.062,0.06201 0.062,0.139527 v 7.007324 q 0,0.07751 -0.062,0.139526 -0.062,0.06201 -0.13953,0.06201 h -1.16272 q -0.0775,0 -0.13952,-0.06201 -0.062,-0.06201 -0.062,-0.139526 z" />
      <path
         id="path4706"
         style="stroke-width:0.26458332px"
         d="m 173.32145,86.93101 q 0,-0.609782 0.31523,-1.121379 0.32039,-0.516764 0.84232,-0.806152 0.5271,-0.294556 1.12655,-0.294556 0.95601,0 1.59163,0.764812 0.0517,0.07235 0.031,0.149861 -0.0155,0.07751 -0.0879,0.144694 l -0.63045,0.604615 q -0.0413,0.03617 -0.11886,0.031 -0.0775,-0.01033 -0.11886,-0.05168 -0.25838,-0.273885 -0.60978,-0.273885 -0.34623,0 -0.59944,0.253214 -0.24805,0.248047 -0.24805,0.599447 0,0.356567 0.23771,0.609782 0.24288,0.248047 0.58911,0.248047 0.25322,0 0.40308,-0.08268 0.15503,-0.08268 0.31522,-0.242879 0.1292,-0.129191 0.23255,-0.04134 l 0.63562,0.54777 q 0.10852,0.09819 0.10852,0.191203 0,0.05168 -0.0362,0.103353 -0.58912,0.888835 -1.70533,0.888835 -0.91984,0 -1.5968,-0.640788 -0.67696,-0.645956 -0.67696,-1.581299 z" />
      <path
         id="path4708"
         style="stroke-width:0.26458332px"
         d="m 177.99817,86.93101 v -1.912028 q 0,-0.08785 0.0568,-0.144694 0.062,-0.05684 0.1447,-0.05684 h 1.13171 q 0.0827,0 0.13953,0.05684 0.062,0.05684 0.062,0.144694 v 1.958537 q 0,0.341064 0.18087,0.578776 0.18086,0.232544 0.49609,0.232544 0.29456,0 0.46509,-0.227377 0.17053,-0.227376 0.17053,-0.521932 v -2.020548 q 0,-0.201538 0.22221,-0.201538 h 1.08004 q 0.0827,0 0.13952,0.05684 0.062,0.05684 0.062,0.144694 v 3.829224 q 0,0.07751 -0.062,0.139526 -0.062,0.06201 -0.13952,0.06201 h -0.4961 q -0.13952,0 -0.20154,-0.149862 l -0.16019,-0.387573 q -0.29973,0.28422 -0.45476,0.387573 -0.40307,0.253215 -0.97151,0.253215 -0.45992,0 -0.82166,-0.1757 -0.36173,-0.1757 -0.58911,-0.480591 -0.22221,-0.310059 -0.34106,-0.707967 -0.11369,-0.397909 -0.11369,-0.857829 z" />
      <path
         id="path4710"
         style="stroke-width:0.26458332px"
         d="m 183.18131,86.93101 q 0,-0.542603 0.16537,-0.971517 0.17053,-0.434082 0.46509,-0.702799 0.29455,-0.268718 0.66662,-0.408244 0.37724,-0.139527 0.81132,-0.139527 0.24288,0 0.50126,0.06718 0.25839,0.06718 0.37724,0.134359 v -3.06958 q 0,-0.07751 0.062,-0.139527 0.062,-0.06201 0.13953,-0.06201 h 1.17306 q 0.0775,0 0.13952,0.06201 0.062,0.06201 0.062,0.139527 v 7.007324 q 0,0.07751 -0.062,0.139526 -0.062,0.06201 -0.13952,0.06201 h -0.4961 q -0.14986,0 -0.22221,-0.211874 l -0.12919,-0.351399 q -0.0207,0.02584 -0.062,0.07235 -0.0362,0.04651 -0.17053,0.160196 -0.13436,0.113689 -0.28422,0.201539 -0.14986,0.08785 -0.39791,0.160197 -0.24288,0.07235 -0.50126,0.07235 -0.88884,0 -1.49345,-0.645956 -0.60462,-0.651123 -0.60462,-1.576131 z m 1.45211,-0.01033 q 0,0.366902 0.24805,0.620117 0.24805,0.248047 0.60978,0.248047 0.36174,0 0.60462,-0.248047 0.24287,-0.253215 0.24287,-0.620117 0,-0.356568 -0.24287,-0.599447 -0.24288,-0.242879 -0.60462,-0.242879 -0.36173,0 -0.60978,0.242879 -0.24805,0.242879 -0.24805,0.599447 z" />
      <path
         id="path4712"
         style="stroke-width:0.26458332px"
         d="m 188.597,87.757833 q 0,-0.625285 0.42375,-1.018026 0.42375,-0.397908 1.13171,-0.397908 0.21188,0 0.41341,0.04134 0.20671,0.04134 0.3049,0.08268 l 0.0982,0.04134 q 0,-0.341064 -0.10852,-0.480591 -0.10852,-0.139526 -0.46509,-0.139526 -0.21187,0 -0.53226,0.04651 -0.31523,0.04651 -0.52194,0.10852 -0.0413,0.01034 -0.0775,0.01034 -0.14986,0 -0.1757,-0.232544 l -0.0982,-0.666626 q -0.005,-0.03617 -0.005,-0.06201 0,-0.165365 0.16536,-0.222209 0.10852,-0.03617 0.56844,-0.09819 0.45992,-0.06201 0.83716,-0.06201 0.97152,0 1.37976,0.423747 0.40824,0.423747 0.40824,1.374593 v 2.340943 q 0,0.07751 -0.062,0.139526 -0.062,0.06201 -0.13952,0.06201 h -0.46509 q -0.12919,0 -0.1912,-0.139527 l -0.1447,-0.28422 q -0.1602,0.144694 -0.29972,0.242879 -0.13436,0.09819 -0.40308,0.191203 -0.26872,0.09302 -0.57877,0.09302 -0.63562,0 -1.04904,-0.387574 -0.41341,-0.387573 -0.41341,-1.00769 z m 1.37976,-0.103353 q 0,0.191203 0.12919,0.330729 0.13436,0.134359 0.32557,0.134359 0.1912,0 0.32556,-0.134359 0.13952,-0.139526 0.13952,-0.330729 -0.0103,-0.186035 -0.14469,-0.315226 -0.13436,-0.129191 -0.32039,-0.129191 -0.19121,0 -0.32557,0.134358 -0.12919,0.129192 -0.12919,0.310059 z" />
    </g>
    <g
       id="text4580"
       style="font-style:normal;font-variant:normal;font-weight:normal;font-stretch:normal;font-size:10.58333302px;line-height:6.61458302px;font-family:'Brandon Grotesque';-inkscape-font-specification:'Brandon Grotesque';letter-spacing:0px;word-spacing:0px;fill:#000000;fill-opacity:1;stroke:none;stroke-width:0.26458332px;stroke-linecap:butt;stroke-linejoin:miter;stroke-opacity:1"
       aria-label="gomkl">
      <path
         id="path4726"
         style="stroke-width:0.26458332px"
         d="m 87.783246,87.078288 q 0,-0.232544 0.08785,-0.43925 0.08785,-0.206706 0.206706,-0.330729 0.124023,-0.129191 0.248047,-0.222209 0.124023,-0.09302 0.211873,-0.134358 l 0.08785,-0.03617 q -0.03617,-0.03617 -0.08785,-0.103353 -0.04651,-0.07235 -0.134358,-0.320394 -0.08268,-0.248047 -0.08268,-0.537435 0,-0.74414 0.54777,-1.286743 0.547771,-0.54777 1.312582,-0.54777 h 1.999878 q 0.08785,0 0.144694,0.05684 0.05684,0.05684 0.05684,0.144694 v 0.434082 q 0,0.124024 -0.113688,0.180868 l -0.61495,0.222208 q 0.0155,0.0155 0.04134,0.04134 0.03101,0.02584 0.09819,0.124023 0.07235,0.09302 0.124024,0.201538 0.05168,0.108521 0.09302,0.289388 0.04651,0.1757 0.04651,0.37207 0,0.620118 -0.516764,1.111044 -0.511597,0.485758 -1.312581,0.485758 H 89.46273 q -0.165364,0 -0.258382,0.07752 -0.08785,0.07751 -0.08785,0.206705 0,0.139527 0.09818,0.217041 0.103353,0.07235 0.237712,0.07235 h 1.27124 q 0.769979,0 1.291911,0.428915 0.5271,0.428914 0.5271,1.116211 0,0.816487 -0.594279,1.328084 -0.594279,0.511597 -1.788005,0.511597 -0.589111,0 -1.033528,-0.129191 -0.444418,-0.129191 -0.692465,-0.346232 -0.248046,-0.211874 -0.366902,-0.459921 -0.118856,-0.242879 -0.118856,-0.506429 0,-0.222208 0.07752,-0.413411 0.08268,-0.191203 0.206705,-0.315226 0.124024,-0.118856 0.206706,-0.186036 0.08268,-0.06201 0.155029,-0.09819 v -0.03101 q -0.07751,-0.02584 -0.191202,-0.09302 -0.108521,-0.06201 -0.26355,-0.196371 -0.149862,-0.129191 -0.253215,-0.366902 -0.103353,-0.232544 -0.103353,-0.521932 z m 1.617473,1.927531 q 0,0.227376 0.191202,0.361735 0.196371,0.134358 0.568441,0.134358 0.377238,0 0.568441,-0.139526 0.19637,-0.134359 0.19637,-0.356567 0,-0.191203 -0.186035,-0.320394 -0.180867,-0.124024 -0.578776,-0.124024 -0.315226,0 -0.537435,0.113688 -0.222208,0.113689 -0.222208,0.33073 z m 0.263549,-3.958415 q 0,0.237712 0.160197,0.397909 0.165365,0.155029 0.403077,0.155029 0.242879,0 0.397908,-0.155029 0.160197,-0.160197 0.160197,-0.397909 0,-0.237712 -0.160197,-0.392741 -0.155029,-0.155029 -0.397908,-0.155029 -0.237712,0 -0.403077,0.160197 -0.160197,0.155029 -0.160197,0.387573 z" />
      <path
         id="path4728"
         style="stroke-width:0.26458332px"
         d="m 92.826866,85.331624 q 0,-0.899169 0.651123,-1.55546 0.651123,-0.656291 1.550293,-0.656291 0.89917,0 1.550293,0.656291 0.651123,0.656291 0.651123,1.55546 0,0.914673 -0.651123,1.576132 -0.645956,0.65629 -1.550293,0.65629 -0.904338,0 -1.555461,-0.65629 -0.645955,-0.661459 -0.645955,-1.576132 z m 1.364258,0 q 0,0.356568 0.242879,0.61495 0.248047,0.253214 0.594279,0.253214 0.346232,0 0.589111,-0.253214 0.248047,-0.258382 0.248047,-0.61495 0,-0.351399 -0.248047,-0.594279 -0.242879,-0.248046 -0.589111,-0.248046 -0.346232,0 -0.594279,0.248046 -0.242879,0.24288 -0.242879,0.594279 z" />
      <path
         id="path4730"
         style="stroke-width:0.26458332px"
         d="m 98.05652,87.259155 v -3.829223 q 0,-0.08785 0.05684,-0.144694 0.05684,-0.05684 0.144694,-0.05684 h 0.485758 q 0.124023,0 0.180867,0.113688 l 0.1757,0.434082 q 0.630453,-0.656291 1.431436,-0.656291 0.43408,0 0.75965,0.160197 0.33072,0.155029 0.62528,0.485759 0.64596,-0.645956 1.46244,-0.645956 0.48059,0 0.85783,0.1757 0.37724,0.1757 0.61495,0.485758 0.23771,0.304891 0.36174,0.7028 0.12402,0.397908 0.12402,0.857829 v 1.917195 q 0,0.08268 -0.0568,0.144694 -0.0568,0.05684 -0.1447,0.05684 h -1.12138 q -0.0879,0 -0.14469,-0.05684 -0.0568,-0.06201 -0.0568,-0.144694 v -1.979207 q 0,-0.341064 -0.18603,-0.563273 -0.18087,-0.227376 -0.5271,-0.227376 -0.28422,0 -0.49609,0.206705 -0.21188,0.206706 -0.21188,0.511597 v 2.051554 q 0,0.08268 -0.0568,0.144694 -0.0568,0.05684 -0.1447,0.05684 h -1.01285 q -0.0879,0 -0.1447,-0.05684 -0.0568,-0.06201 -0.0568,-0.144694 v -1.979207 q 0,-0.346232 -0.16537,-0.568441 -0.16536,-0.222208 -0.50126,-0.222208 -0.320391,0 -0.532264,0.206705 -0.211874,0.206706 -0.211874,0.532268 v 2.030883 q 0,0.07751 -0.06201,0.139527 -0.05684,0.06201 -0.134359,0.06201 h -1.111043 q -0.08785,0 -0.144694,-0.05684 -0.05684,-0.06201 -0.05684,-0.144694 z" />
      <path
         id="path4732"
         style="stroke-width:0.26458332px"
         d="m 106.36609,87.259155 v -7.007324 q 0,-0.07751 0.062,-0.139526 0.062,-0.06201 0.13953,-0.06201 h 1.17305 q 0.0775,0 0.13953,0.06201 0.062,0.06201 0.062,0.139526 v 4.5837 l 1.28158,-1.483114 q 0.12402,-0.124023 0.26355,-0.124023 h 1.18339 q 0.13952,0 0.1912,0.10852 0.0568,0.103353 -0.031,0.217041 l -1.39526,1.62264 1.68982,1.968872 q 0.0568,0.06201 0.0568,0.129191 -0.005,0.04134 -0.0258,0.08268 -0.0517,0.103353 -0.19121,0.103353 h -1.42627 q -0.031,0 -0.0878,-0.02584 -0.0517,-0.02584 -0.0723,-0.05684 l -1.43661,-1.844849 v 1.725993 q 0,0.07751 -0.062,0.139527 -0.062,0.06201 -0.13953,0.06201 h -1.17305 q -0.0775,0 -0.13953,-0.06201 -0.062,-0.06201 -0.062,-0.139527 z" />
      <path
         id="path4734"
         style="stroke-width:0.26458332px"
         d="m 111.78178,87.259155 v -7.007324 q 0,-0.07751 0.062,-0.139526 0.062,-0.06201 0.13953,-0.06201 h 1.16272 q 0.0775,0 0.13952,0.06201 0.062,0.06201 0.062,0.139526 v 7.007324 q 0,0.07751 -0.062,0.139527 -0.062,0.06201 -0.13952,0.06201 h -1.16272 q -0.0775,0 -0.13953,-0.06201 -0.062,-0.06201 -0.062,-0.139527 z" />
    </g>
    <rect
       ry="2.0000012"
       rx="2.0000012"
       y="41.463459"
       x="52.673584"
       height="13.363482"
       width="29.477928"
       id="rect4586"
       style="fill:none;fill-opacity:1;stroke:#000000;stroke-width:0.80000001;stroke-linecap:butt;stroke-linejoin:round;stroke-miterlimit:4;stroke-dasharray:none;stroke-dashoffset:0;stroke-opacity:1;paint-order:stroke fill markers" />
    <rect
       ry="2.0000012"
       rx="2.0000012"
       y="41.463467"
       x="124.11053"
       height="13.363476"
       width="37.952274"
       id="rect4588"
       style="fill:none;fill-opacity:1;stroke:#000000;stroke-width:0.80000001;stroke-linecap:butt;stroke-linejoin:round;stroke-miterlimit:4;stroke-dasharray:none;stroke-dashoffset:0;stroke-opacity:1;paint-order:stroke fill markers" />
    <rect
       ry="2.0000012"
       rx="2.0000012"
       y="60.199192"
       x="25.390606"
       height="14.165298"
       width="35.413212"
       id="rect4590"
       style="fill:none;fill-opacity:1;stroke:#000000;stroke-width:0.80000001;stroke-linecap:butt;stroke-linejoin:round;stroke-miterlimit:4;stroke-dasharray:none;stroke-dashoffset:0;stroke-opacity:1;paint-order:stroke fill markers" />
    <rect
       ry="2.0000012"
       rx="2.0000012"
       y="60.1992"
       x="68.955536"
       height="14.165285"
       width="30.468725"
       id="rect4592"
       style="fill:none;fill-opacity:1;stroke:#000000;stroke-width:0.80000001;stroke-linecap:butt;stroke-linejoin:round;stroke-miterlimit:4;stroke-dasharray:none;stroke-dashoffset:0;stroke-opacity:1;paint-order:stroke fill markers" />
    <rect
       ry="2.0000012"
       rx="2.0000012"
       y="60.199192"
       x="118.66766"
       height="14.165298"
       width="26.208622"
       id="rect4594"
       style="fill:none;fill-opacity:1;stroke:#000000;stroke-width:0.80000001;stroke-linecap:butt;stroke-linejoin:round;stroke-miterlimit:4;stroke-dasharray:none;stroke-dashoffset:0;stroke-opacity:1;paint-order:stroke fill markers" />
    <rect
       ry="2.0000012"
       rx="2.0000012"
       y="60.199192"
       x="151.29076"
       height="14.165298"
       width="30.814281"
       id="rect4596"
       style="fill:none;fill-opacity:1;stroke:#000000;stroke-width:0.80000001;stroke-linecap:butt;stroke-linejoin:round;stroke-miterlimit:4;stroke-dasharray:none;stroke-dashoffset:0;stroke-opacity:1;paint-order:stroke fill markers" />
    <rect
       ry="2.0000012"
       rx="2.0000012"
       y="78.373528"
       x="14.699824"
       height="14.699821"
       width="41.159504"
       id="rect4598"
       style="fill:none;fill-opacity:1;stroke:#000000;stroke-width:0.80000001;stroke-linecap:butt;stroke-linejoin:round;stroke-miterlimit:4;stroke-dasharray:none;stroke-dashoffset:0;stroke-opacity:1;paint-order:stroke fill markers" />
    <rect
       ry="2.0000012"
       rx="2.0000012"
       y="78.373528"
       x="62.808342"
       height="14.699813"
       width="20.312489"
       id="rect4604"
       style="fill:none;fill-opacity:1;stroke:#000000;stroke-width:0.80000001;stroke-linecap:butt;stroke-linejoin:round;stroke-miterlimit:4;stroke-dasharray:none;stroke-dashoffset:0;stroke-opacity:1;paint-order:stroke fill markers" />
    <rect
       ry="2.0000012"
       rx="2.0000012"
       y="78.373528"
       x="86.060791"
       height="14.699803"
       width="29.666914"
       id="rect4610"
       style="fill:none;fill-opacity:1;stroke:#000000;stroke-width:0.80000001;stroke-linecap:butt;stroke-linejoin:round;stroke-miterlimit:4;stroke-dasharray:none;stroke-dashoffset:0;stroke-opacity:1;paint-order:stroke fill markers" />
    <rect
       ry="2.0000012"
       rx="2.0000012"
       y="78.373528"
       x="120.53855"
       height="14.69981"
       width="23.920622"
       id="rect4612"
       style="fill:none;fill-opacity:1;stroke:#000000;stroke-width:0.80000001;stroke-linecap:butt;stroke-linejoin:round;stroke-miterlimit:4;stroke-dasharray:none;stroke-dashoffset:0;stroke-opacity:1;paint-order:stroke fill markers" />
    <rect
       ry="2.0000012"
       rx="2.0000012"
       y="78.373528"
       x="151.34334"
       height="14.699806"
       width="43.62978"
       id="rect4614"
       style="fill:none;fill-opacity:1;stroke:#000000;stroke-width:0.80000001;stroke-linecap:butt;stroke-linejoin:round;stroke-miterlimit:4;stroke-dasharray:none;stroke-dashoffset:0;stroke-opacity:1;paint-order:stroke fill markers" />
    <flowRoot
       transform="scale(0.26458333)"
       style="font-style:normal;font-variant:normal;font-weight:normal;font-stretch:normal;font-size:40px;line-height:25px;font-family:'Brandon Grotesque';-inkscape-font-specification:'Brandon Grotesque';letter-spacing:0px;word-spacing:0px;fill:#000000;fill-opacity:1;stroke:none;stroke-width:1px;stroke-linecap:butt;stroke-linejoin:miter;stroke-opacity:1"
       id="flowRoot4620"
       xml:space="preserve"><flowRegion
         id="flowRegion4622"><rect
           y="72.519684"
           x="312.14285"
           height="55"
           width="170"
           id="rect4624" /></flowRegion><flowPara
         id="flowPara4626"></flowPara></flowRoot>    <rect
       ry="2.0000012"
       rx="2.0000012"
       y="22.778273"
       x="82.965775"
       height="12.851189"
       width="44.601185"
       id="rect4628"
       style="fill:none;fill-opacity:1;stroke:#000000;stroke-width:0.80000001;stroke-linecap:butt;stroke-linejoin:round;stroke-miterlimit:4;stroke-dasharray:none;stroke-dashoffset:0;stroke-opacity:1;paint-order:stroke fill markers" />
    <path
       id="path4640"
       d="m 67.084651,54.853808 v 2.00452 h -25.25697 v 3.34087"
       style="fill:none;fill-rule:evenodd;stroke:#000000;stroke-width:0.26458332px;stroke-linecap:butt;stroke-linejoin:miter;stroke-opacity:1" />
    <path
       id="path4642"
       d="m 67.084651,56.858328 h 17.439335 v 3.207236"
       style="fill:none;fill-rule:evenodd;stroke:#000000;stroke-width:0.26458332px;stroke-linecap:butt;stroke-linejoin:miter;stroke-opacity:1" />
    <path
       id="path4644"
       d="m 41.092688,74.631753 v 3.541321"
       style="fill:none;fill-rule:evenodd;stroke:#000000;stroke-width:0.26458332px;stroke-linecap:butt;stroke-linejoin:miter;stroke-opacity:1" />
    <path
       id="path4646"
       d="m 84.457169,74.564935 v 1.737251 H 73.76639 v 2.004523"
       style="fill:none;fill-rule:evenodd;stroke:#000000;stroke-width:0.26458332px;stroke-linecap:butt;stroke-linejoin:miter;stroke-opacity:1" />
    <path
       id="path4648"
       d="m 84.457169,76.302184 h 17.639791 v 1.937707"
       style="fill:none;fill-rule:evenodd;stroke:#000000;stroke-width:0.26458332px;stroke-linecap:butt;stroke-linejoin:miter;stroke-opacity:1" />
    <path
       id="path4650"
       d="m 142.49702,54.717261 v 2.362351 h -10.48884 v 3.02381"
       style="fill:none;fill-rule:evenodd;stroke:#000000;stroke-width:0.26458332px;stroke-linecap:butt;stroke-linejoin:miter;stroke-opacity:1" />
    <path
       id="path4652"
       d="m 142.49702,57.079612 h 25.22991 v 3.118304"
       style="fill:none;fill-rule:evenodd;stroke:#000000;stroke-width:0.26458332px;stroke-linecap:butt;stroke-linejoin:miter;stroke-opacity:1" />
    <path
       id="path4654"
       d="m 132.19717,74.277529 v 4.063243"
       style="fill:none;fill-rule:evenodd;stroke:#000000;stroke-width:0.26458332px;stroke-linecap:butt;stroke-linejoin:miter;stroke-opacity:1" />
    <path
       id="path4656"
       d="m 167.44436,74.431299 v 3.808593"
       style="fill:none;fill-rule:evenodd;stroke:#000000;stroke-width:0.26458332px;stroke-linecap:butt;stroke-linejoin:miter;stroke-opacity:1" />
    <path
       id="path4658"
       d="m 105.30419,35.877672 v 2.672693 H 67.485556"
       style="fill:none;fill-rule:evenodd;stroke:#000000;stroke-width:0.26458332px;stroke-linecap:butt;stroke-linejoin:miter;stroke-opacity:1" />
    <path
       id="path4660"
       d="M 67.485555,38.550365 V 41.28988"
       style="fill:none;fill-rule:evenodd;stroke:#000000;stroke-width:0.26458332px;stroke-linecap:butt;stroke-linejoin:miter;stroke-opacity:1" />
    <path
       id="path4662"
       d="m 105.30419,38.550365 h 37.7598 v 2.748742"
       style="fill:none;fill-rule:evenodd;stroke:#000000;stroke-width:0.26458332px;stroke-linecap:butt;stroke-linejoin:miter;stroke-opacity:1" />
  </g>
</svg>
